<svg xmlns="http://www.w3.org/2000/svg" version="1.1" xmlns:xlink="http://www.w3.org/1999/xlink"  viewBox="0 0 1422 800"><defs><linearGradient x1="50%" y1="0%" x2="50%" y2="100%" id="ssscribble-grad"><stop stop-color="hsl(206, 100%, 38%)" stop-opacity="1" offset="0%"></stop><stop stop-color="hsl(331, 90%, 56%)" stop-opacity="1" offset="100%"></stop></linearGradient></defs><g fill="none" stroke-width="1" stroke="url(#ssscribble-grad)" stroke-linecap="round"><path d="M1449.35 387.64C1455.87 414.82 1482.58 444.37 1514.84 476.16 1537.09 508.01 1535.93 542.04 1511.05 577.72 1473.01 612.57 1436.12 647.39 1413.57 680.14 1419.87 719.96 1465.36 755.78 1446.45 755.41 1412.26 758.65 1370.51 769.89 1331.05 794.59 1301.87 833.54 1286.42 882.38 1283.38 931.58 1293.86 976.73 1288.96 955.43 1255.04 958.85 1220.96 996.52 1182.04 1050.45 1142.08 1096.91 1103.46 1114.31 1068.79 1098.17 1038.89 1067.27 1014.05 1055.14 993.42 1079.69 975.61 1132.56 953.66 1184.28 908.76 1119.99 881.89 1160.06 862.99 1212.42 841.79 1228.97 818.44 1195.54 794.96 1149.76 769.57 1140 742.38 1179.25 715.2 1227.33 686.87 1231.66 657.41 1187.75 627.8 1139.43 596.83 1131.61 564.47 1166.48 531.87 1206.18 497.93 1206.53 463.08 1163.16 428.82 1109.86 394.87 1086.19 362.55 1102.93 333.26 1138.35 307.94 1153.76 288.15 1130.3 269.09 1053.3 258.78 1023.92 253.19 1050.32 240.39 1040.32 218.73 1002.7 187.42 951.01 148.54 902.15 106.62 870.46 68.04 859.07 31.57 869.11 43.91 856.63 61.55 809.16 56.31 765.77 33.96 720.84 -2.43 678.94 -43.61 641.37 -76.61 610.19 -90.6 584.3 -83.4 563.07 -59.49 544.2 -31.93 525.66 -17.55 508.57 -24.38 489.74 -52.01 468.4 -89.64 447.21 -119.11 423.08 -125.63 395.9 -106.8 368.72 -71.38 339.12 -36.9 307.37 -19.84 275.76 -25.62 242.42 -48.69 208.25 -77.19 175.52 -94.08 144.03 -89.76 115.95 -64.61 92.52 -25.63 75.42 14.25 65.89 48.5 60.17 26.34 39.6 13.68 -3.67 22.32 -48.59 46.91 -98.6 83.21 -142.76 124.94 -170.26 165.22 -175.9 198.65 -162.67 221.96 -146.6 235.29 -142.91 241.15 -165.01 241.25 -211.64 241.18 -265.63 244.37 -302.29 251.35 -306.32 265.22 -282.01 285.69 -254.58 311.46 -255.38 341.93 -292.93 375.22 -348.28 410.62 -384.94 446.36 -378.97 481.36 -341.01 516.17 -312.98 549.46 -326.31 581.15 -376.5 612.26 -421.86 642.07 -422.04 670.8 -379.1 699.31 -340.56 727.13 -347.65 754.31 -395.73 781.5 -434.98 807.4 -422.47 831.83 -371.3 856.05 -332.5 878.42 -341.06 898.57 -382.92 918.15 -413.78 935.21 -398.24 949.72 -346.69 970.3 -295.7 1009.83 -352.8 1036.42 -317.61 1060.59 -262.47 1090.05 -219.99 1124.96 -209.09 1163.67 -227.24 1204.2 -250.91 1242.99 -256.48 1276.02 -233.97 1300.02 -187.71 1312.34 -135.16 1311.36 -82.66 1297.19 -84.74 1319.69 -85.99 1353.18 -68.79 1394.45 -36.7 1434.33 4.67 1463.31 50.66 1474.13 94.64 1465.47 133.12 1445.51 165.39 1424.23 190.92 1414.41 211.79 1425.43 228.36 1455.3 243.89 1494.3 260.31 1527.85 275.89 1541.63 294.03 1529.95 315.13 1500.84 336.28 1468.18 360.45 1449.35 387.64Q1449.35 387.64 1449.35 387.64" opacity="0.29"></path><path d="M1417.85 442.34C1423.62 468.44 1448.37 495.57 1479.46 523.26 1503.13 550.45 1506.27 577.2 1486.78 602.28 1452.3 625.34 1414.71 644.9 1386.8 659.67 1381.12 674.97 1427.76 691.49 1425.33 710.41 1402.07 735.98 1366.24 772.24 1325.82 817.27 1288.88 863.86 1261.43 904.72 1245.86 930.78 1244.27 933.95 1254.79 913.16 1241.48 957.16 1221.12 1008.47 1192.57 1054.6 1158.55 1075.83 1121.21 1067.05 1083.41 1039.71 1047.25 1019.57 1013.46 1030.62 983.21 1073.47 956.33 1126.04 932.71 1156.11 911.43 1146.09 891.44 1108.83 873.21 1082.52 854.84 1094.61 835.63 1141.79 816.92 1187.94 796.66 1194.78 774.56 1157.87 752.53 1115.49 728.5 1109.22 702.4 1147.75 676.31 1194.47 648.77 1201.83 619.97 1162.78 591.24 1113.6 561.42 1097.01 530.91 1123.28 500.91 1165.05 470.93 1179.35 441.82 1150.16 414.47 1097.55 389.4 1058.31 367.8 1055.59 342.52 1098.65 317.96 1055.27 313.18 983.92 306.99 965.07 296.69 973.63 279.71 994.28 254.26 1009.11 221.27 1001.35 182.71 969.52 142.83 921.96 106.47 872.93 79.14 834.69 63.09 810.78 90.57 818.42 95.83 808.41 79.65 788.06 49.06 757.81 10.14 721.53 -27.23 681.3 -52.11 641.22 -57.2 603.5 -44.02 567.62 -18.89 535.33 5.5 506.02 14.93 478.59 4.1 452.73 -24.71 427.42 -60.97 402.65 -88.36 377.39 -94.13 351.3 -76.45 325.2 -42.85 298.89 -8.76 272.83 10.67 247.31 9.31 223.09 -9.7 201.31 -47.5 173.37 -27.81 141.13 28.42 132.99 62.99 124.06 84.45 110.21 90.15 87.71 81.53 54.98 67.06 13.16 55.35 -33.74 51.93 -77.47 62.53 -110.97 86.8 -127.06 121.24 -126.16 160.98 -112.96 200.19 -99.61 234.41 -101.98 260.7 -126.79 278.64 -172.44 290.64 -242.7 300.24 -238.3 312.36 -215.05 325.71 -239.65 344.35 -289.85 367.38 -337.57 393.69 -353.98 422.7 -331.73 453.14 -293.85 484.88 -279.38 516.67 -306.14 547.79 -357.98 579.12 -394.32 609.35 -385.41 638.25 -341.4 667.12 -307.51 694.66 -317.51 720.76 -364.23 746.86 -402.76 770.88 -393.85 792.84 -346.3 814.77 -304.23 834.63 -303.39 852.51 -339.47 870.6 -376.58 887.16 -376.21 902.76 -335.18 919.67 -283.19 937 -256.17 955.91 -267.12 978.11 -300.56 1003.57 -322.15 1033.06 -309.92 1066.31 -266.5 1102.86 -213.87 1141.22 -177.93 1178.57 -171.98 1212.72 -189.06 1240.41 -209.55 1259.8 -216.1 1269.35 -196.81 1269.33 -155.98 1264.32 -105.51 1257.15 -60.6 1253.52 -30.97 1260.07 -19.7 1278.52 -21.71 1309.11 -28.08 1347.99 -32.9 1387.76 -27.56 1419.65 -10.28 1437.23 17.62 1437.03 53.76 1421.59 93.6 1401.08 135.19 1384.87 174.48 1383.02 210.06 1400.94 242.63 1433.98 271.41 1471.56 297.56 1500.65 321.7 1509.69 345.04 1495.42 368.67 1466.48 391.81 1435.53 416.25 1417.85 442.34Q1417.85 442.34 1417.85 442.34" opacity="0.99"></path><path d="M1386.35 438.25C1391.41 463.26 1414.22 486.29 1443.95 507.1 1468.59 527.59 1475.59 545.32 1461.47 559.95 1431.37 574.06 1394.61 585.32 1362.97 594.52 1345.89 605.39 1345.58 617.23 1358.31 632.68 1377.79 654.69 1392.91 683.81 1396.16 720.7 1384.97 762.42 1358.98 805.99 1323.28 845.34 1284.52 874.02 1249.25 888.12 1222.23 886.42 1203.05 870.3 1206.97 902.41 1207.28 971.42 1200.31 1014.94 1185.34 1037.26 1163.14 1031.44 1135.17 1008.28 1102.88 986.5 1068.5 987.67 1033.02 1020.32 998.42 1070.94 965.65 1112.57 934.56 1122.45 905.84 1098.02 879.19 1062.01 854.26 1048.99 830.6 1074.05 807.56 1123.45 785.36 1161.56 762.97 1159.28 739.95 1120.11 717.14 1081.51 693.29 1078.54 668.28 1116.25 643.28 1161.55 617.7 1171.64 591.8 1137.62 566.11 1088.82 540.5 1064.61 515.53 1081.2 491.41 1121.39 468.74 1146.61 448.3 1133.24 421.73 1064.09 387.23 1045.93 377.82 1081.19 371.14 1073.17 363.56 1035.14 352.99 984.59 336.65 943.18 314.4 925.68 285.59 931.6 251.21 950.99 213.43 965.28 175.79 962.07 142.56 938.23 117.58 897.52 104.11 850.64 105.32 791.37 132.29 752.36 122.05 754.46 96.5 754.25 61 746.72 23.19 731.31 -7.86 709.34 -23.83 681.38 -20.87 650 -3.34 615.89 21.47 581.58 41.92 548.46 46.39 515.26 32.03 484.08 2.45 455.06 -32.23 426.23 -57.57 399.31 -62.63 374.31 -46.08 349.3 -14.33 326.79 19.13 306.91 40.54 287.22 43.33 270.4 28.68 256.44 -8.11 236.38 -8.17 196.89 41.07 167.29 78.23 139.37 107.56 104.64 123.73 63.79 124.95 21.15 115.93 -19.77 103.4 -52.79 92 -75.92 140.23 -56.76 193.38 -62.51 231.59 -92.08 266.63 -137.59 295.93 -186.5 325.72 -227.13 351.68 -185.52 359.49 -192.91 365.57 -235.32 375.09 -285.99 388.37 -317.2 404.13 -313.38 423.46 -281.6 445.58 -250.6 469.51 -251.34 495.11 -288.5 521.55 -338.34 548.72 -364.58 575.91 -347.73 602.62 -303.87 629.48 -274.8 655.54 -287.43 680.55 -332.73 705.55 -370.44 728.93 -364.94 750.77 -321.39 772.78 -277.27 793.58 -267.63 813.57 -296.09 834.3 -335.84 855.03 -348.96 876.47 -321.83 899.72 -271.71 924.81 -230.99 952.39 -222.54 982.45 -245.84 1015.19 -276.08 1050.17 -286.42 1085.71 -265.29 1121 -219.27 1153.87 -170.07 1193.03 -135.46 1223.76 -170.55 1217.97 -160.89 1213.57 -127.26 1212.85 -81.41 1220.19 -35.27 1238.96 2.21 1268.17 25.33 1304.93 35.2 1360.13 32.53 1399.5 40.76 1376.19 68.67 1358.14 96.55 1348.69 129.13 1354.81 163.64 1378.46 199.8 1413.15 234.87 1448.23 267.92 1472.53 300.46 1477.1 330.73 1460.64 358.95 1432.12 386.85 1402.9 413.25 1386.35 438.25Q1386.35 438.25 1386.35 438.25" opacity="0.27"></path><path d="M1354.85 381.05C1359.23 404.97 1380.13 426.39 1408.35 445.5 1433.54 464.83 1443.88 482.39 1434.97 498.93 1409.83 516.86 1375.29 535.43 1341.69 556.17 1318.5 580.54 1310.01 609.08 1315.51 642.57 1331.42 679.37 1348.55 718.94 1359.17 758.25 1359.11 792.55 1344.82 818.83 1318.17 833.3 1283.62 836.63 1246.49 830.15 1212.27 819.72 1185.09 815.84 1166.81 824.36 1156.97 850.33 1154.91 891.4 1156.51 938.56 1158.33 978.15 1157.2 996.17 1119.45 950.3 1083.24 973.06 1054.12 1018.69 1022.88 1065 990.95 1088.49 958.45 1079.57 926.8 1047.71 896.49 1019.34 866.87 1021.02 838.73 1056.16 811.94 1104.24 785.75 1133.06 760.46 1122.57 735.82 1082.35 711.37 1047.84 687.22 1047.94 663.3 1084.75 639.38 1128.55 616.25 1141.1 594.11 1112.2 572.16 1064.9 551.53 1034.47 532.61 1040.95 506.2 1092.43 465.83 1053.67 451.46 991.94 437.34 994.97 400.46 1039.16 370.29 992.95 343.39 944.46 311.81 904.9 276.7 885.63 240.65 888.49 206.21 903.64 176.92 917.67 155.41 921.17 143.83 906.49 142.77 875.49 148.73 833.71 159.23 789.64 168.88 750.59 170.61 720.5 161.73 701.16 140.45 690.42 108.49 686.83 71.87 685.11 38.43 681.78 15.4 676.99 8.31 667.1 18 652.21 38.11 633.98 61.22 611.95 77.13 587.6 76.81 561.63 59.42 535.04 29.51 508.84 -3.44 482.31 -26.76 456.88 -31.14 432.96 -15.69 409.04 14.18 387.19 46.8 367.13 69.75 346.73 76.38 327.41 66.26 308.27 43.82 287.51 20.4 265.22 5.97 240.06 5.98 211.56 23.34 178.96 53.96 142.3 90.24 104.17 124.22 65.46 149.21 29.77 161.07 -8.15 136.55 -17.92 131.61 -6.13 140.36 -9.35 160.02 -27.51 188.43 -62.36 222.59 -107.74 258.98 -152.75 294.16 -183.86 325.89 -192.84 352.41 -179.92 373.52 -156.33 389.02 -142.26 400.6 -150.97 409.92 -186.2 420.5 -254.8 448.5 -248.72 469.27 -213.08 485.2 -228.6 503.54 -272.28 523.8 -316.86 544.79 -332.59 567.06 -309.2 590.16 -266.64 613.45 -242.46 637.17 -257.41 661.09 -301.21 685.01 -338.04 708.57 -335.73 731.87 -296.49 755.37 -251.53 779 -233.99 803.12 -253.57 827.98 -292.42 853.96 -316.14 881.43 -304.34 910.08 -262.47 940.51 -215.03 972.59 -188.57 1005.12 -194.53 1038.19 -221.34 1070.57 -245.63 1100.53 -248.66 1127.09 -222.3 1148.45 -176.83 1168.75 -114.89 1173.06 -111.33 1168.48 -129.71 1171.43 -124.32 1181.62 -100 1201.12 -61.9 1229.99 -17.24 1265.25 24.84 1302.26 58.38 1351.95 92.35 1317.06 118.01 1329.67 144.02 1357.59 166.67 1392.44 192.42 1424.1 219.61 1443.45 248.18 1443.86 276.53 1425.65 303.79 1397.76 331.27 1370.3 357.13 1354.85 381.05Q1354.85 381.05 1354.85 381.05" opacity="0.97"></path><path d="M1323.35 350.14C1327.09 372.97 1346.11 395.77 1372.68 418.77 1397.99 442.16 1411.15 466.52 1407.16 492.48 1387.33 519.7 1356.21 549.38 1322.41 581.76 1294.82 615.13 1278.93 650.14 1276.41 685.14 1293.93 730.86 1322.73 778.55 1305.84 775.6 1280.19 769.82 1247.28 766.26 1211.91 771.43 1178.37 790.59 1150.16 823.54 1129.04 866.43 1112.58 926.67 1107.42 943.99 1104.94 914.49 1099.95 910.75 1090.12 930.46 1075.56 971.15 1057.29 1017.46 1035.16 1049.44 1010.29 1052.63 983.29 1030.18 955.12 998.65 926.67 982.55 897.66 998.34 869.22 1039.83 841.74 1083.39 814.3 1102.31 787.95 1084.82 762.79 1044.7 737.69 1014.49 713.69 1017.41 690.85 1053.24 668.02 1095.48 646.9 1110.17 627.52 1086.38 599.47 1024.08 552.6 1048.54 533.26 1081.18 520.27 1064.27 507.89 1021.98 495.32 976.95 480.62 951.26 464.17 953.63 444.94 975.68 422.01 1000.93 395.44 1009.27 365.24 992.6 332.58 954.97 298.49 908.94 265.1 869.55 222.69 845.21 184.59 871.17 191.02 870.06 199.43 851.02 206.91 819.31 208.79 780.54 200.38 739.4 181.31 701.74 152.55 670.52 117.96 646.62 83.92 629.77 57.38 617.76 43.67 606.74 89.91 581.92 111.03 562.52 106.21 547.65 86.34 530.08 56.51 510.36 25.42 490.28 4.09 468.69 0.35 445.86 14.74 423.02 42.74 399.49 74.3 375.09 98.37 350.34 108.42 324.08 102.84 295.89 84.12 266.8 61.43 235.38 43.75 201.89 36.9 168.48 45.74 134.77 68.88 102.8 101.12 75.23 136.11 53.5 166.99 39.9 193.51 34.26 186.03 43.28 173.92 28.51 171.87 0.89 178.79 -38.31 194.92 -82.76 218.85 -121.99 249 -146.92 282.42 -151.33 316.86 -138.9 349.73 -118.3 379.44 -104.44 405.22 -111.53 426.78 -142 444.71 -187.61 465.06 -240.53 497.84 -200.07 515.25 -182.32 527.28 -210.33 541.27 -256.25 557.23 -292.97 573.49 -298.39 591.61 -270.02 611.44 -229.78 631.39 -210.5 652.83 -227.48 675.67 -269.72 698.5 -305.56 722.19 -306.19 746.71 -271.46 771.36 -226.83 797.05 -202.6 823.86 -212.71 850.96 -247.45 879.28 -278.04 908.67 -280.95 938.03 -251.98 967.9 -205.58 997.55 -166.39 1025.72 -152.83 1052.07 -166.2 1075.33 -192.15 1094.89 -212.47 1109.74 -210.06 1119.14 -182.55 1124.63 -138.87 1125.75 -94.26 1123.97 -62.42 1123.82 -53 1155.01 -82.82 1194.81 -70.11 1228.93 -42.61 1264.27 -5.06 1295.9 35.9 1319.45 75.59 1331.36 108.89 1330.31 134.26 1311.61 157.02 1284.53 177.51 1307.27 188.34 1337.84 197.39 1371.44 210.01 1398.97 225.85 1413.36 242.95 1410.02 262.42 1390.47 283.5 1363.43 304.97 1337.74 327.3 1323.35 350.14Q1323.35 350.14 1323.35 350.14" opacity="0.75"></path><path d="M1291.85 388.44C1294.99 410.19 1312.19 433.83 1337 459.27 1362.04 484.74 1377.43 512 1377.92 540.72 1363.53 569.07 1336.76 598.04 1304.41 626.5 1256.52 687.98 1284.67 713.96 1283.2 712.16 1268.82 719.87 1244.79 737.34 1214.27 766.22 1180.76 804.01 1147.89 845.74 1118.6 883.52 1086.09 913.65 1057.34 884.02 1053.14 872.74 1051.61 891.15 1048.04 928.28 1041.54 972.91 1026.85 1014.5 977.2 966.21 944.98 952.61 921.64 980.11 897.51 1023.84 873.22 1060.28 848.48 1069.32 824.1 1046.23 800.45 1007.29 776.72 981.49 753.89 986.98 732.15 1021.74 710.4 1062.36 690.25 1078.88 671.63 1060.1 652.92 1018.77 635.55 980.68 619.29 968.19 602.57 986.86 586.41 1020.45 570.29 1044.9 552.9 1043.8 534.61 1013.95 514.73 969.64 492.59 931.2 468.09 914.11 440.95 920.97 411.75 943.95 380.65 965.43 348.67 971.26 317.63 955.94 288.7 921.45 263.96 878.36 234.94 815.72 246.74 822.07 238.39 799.84 220.08 771.6 193.27 736.97 160.88 700.2 127.61 663.44 99.24 630.19 81.14 601.52 75.56 577.26 83.28 557.28 101.06 540.18 129.33 519.13 123.74 477.57 83.5 453.07 54.39 436.12 34.99 416.82 31.85 395.07 45.19 373.33 71.32 349.65 101.63 324.25 126.4 298.93 139.44 272.12 138.26 244.37 123.77 217.42 103.04 190.69 83.79 165.5 71.61 143.14 72.54 124.5 87.34 111.07 113.1 102.05 145.55 98.55 178.64 99.6 216.65 100.65 234.28 67.9 223.85 20.12 216.37 -20.44 213.9 -60.51 218.4 -92 229.81 -108.78 248.84 -108.4 273.92 -93.91 303.32 -76.5 335.05 -66.22 367.05 -73.53 398.27 -102 427.19 -144.55 453.29 -186.93 476.47 -213.19 496.86 -213.83 515.08 -191.34 531.02 -162.97 545.95 -147.26 560.63 -158.42 581.46 -217.13 627.62 -246.26 654.29 -193.39 672.58 -178.89 692.59 -197.61 714.33 -238.22 736.08 -272.99 759.05 -276.29 783.11 -246.2 807.15 -202.96 832.2 -173.46 858.02 -174.1 883.58 -202.14 909.52 -235.49 935.31 -250.72 960.08 -236.97 983.78 -198.6 1005.53 -154.37 1033.17 -121.66 1066.36 -168.25 1071.52 -172.06 1073.04 -146.34 1073.68 -105.72 1075.39 -62.74 1081.44 -28.53 1092.26 -10.18 1109.36 -7.42 1133.35 -16.69 1162.97 -28.56 1196.13 -35.24 1229.46 -33.01 1259.24 -18.11 1281.45 7.69 1293.97 41.58 1295.32 79.09 1286.57 116.04 1272.88 150.55 1258.15 179.91 1248.33 203.99 1249.47 223.1 1262.7 238.47 1287.14 251.81 1318.67 262.82 1349.78 274.13 1372.66 286.79 1382.23 299.08 1375.6 313.56 1355.13 330.44 1329.11 347.36 1305.2 366.7 1291.85 388.44Q1291.85 388.44 1291.85 388.44" opacity="0.84"></path><path d="M1260.35 442.77C1262.94 463.43 1278.36 484.89 1301.32 506.83 1325.74 528.46 1342.78 549.95 1347.22 570.52 1338.15 589.83 1316.39 607 1286.94 621.04 1226.29 642.31 1239.87 662.72 1249.49 688.63 1246.07 716.92 1233.07 752.23 1211.72 791.14 1184.24 827.62 1153.15 856.51 1121.47 872.34 1091.47 874.1 1065.18 863.29 1043.5 846.36 1027.01 834.68 1014.94 835.58 1006.18 854.63 1000.72 890 996.19 932.34 991.34 968.04 983.55 982.06 955.19 922.53 934.11 929.47 918.18 964.95 900.5 1006.9 881.56 1034.41 862.04 1034.16 841.79 1007 821.2 970.2 800.46 948.85 779.67 956.63 759.01 990.24 738.35 1029.17 718.31 1047.22 698.81 1033.27 679.16 996.08 659.76 956.66 640.32 936.4 620.3 944.95 599.71 973.44 578.16 1002.64 555.48 1015.18 531.34 1000.77 505.53 964.88 478.57 922.39 450.15 889.98 420.78 877.81 391.71 887.09 363.3 907.85 336.92 926.66 313.85 933.56 295.16 921.25 282.09 891.9 274.22 852.33 272.14 812.19 275.06 779.71 282.32 756.14 280.01 766.75 256.92 771.72 231.13 766.4 200.41 752 168.59 729.97 140.1 701.94 119.51 670.37 110.26 637.85 112.32 604.88 124.87 573.89 143.76 545.49 161.54 518.84 173.45 494.71 174.54 472.47 162.13 451.45 139.01 431.3 110.5 411.38 83.45 391.78 65.94 371.77 63.35 351.11 75.69 330.45 99.93 309.64 128.83 288.99 161.67 258.92 153.52 207.44 125.45 189.53 106.86 177.6 141.76 166.96 186.79 159.4 217.89 147.52 244.46 128.99 263.75 102.48 274.09 69.2 276.77 31.38 274.06 -6.48 263.75 -51.55 311.58 -32.14 350.69 -65.89 379.98 -106.21 409.84 -146.99 439.09 -174.7 467.51 -180.96 494.11 -165.39 518.76 -138.05 541.7 -117.3 562.93 -116.33 582.87 -140.52 601.58 -181.37 619.72 -219.73 637.77 -236.27 655.26 -223.99 673.22 -190.65 691.92 -157.54 710.48 -147.67 730.06 -167.8 750.71 -206.72 771.37 -240.34 792.63 -246.05 814.3 -220.62 835.85 -179.72 857.54 -146.48 879.01 -138.25 899.92 -157.77 920.05 -189.87 938.82 -213.7 956.36 -214.95 971.83 -189.57 984.69 -148.5 1007.93 -105.1 1028.06 -124.41 1041.95 -77.29 1057.78 -35.97 1078.77 0.62 1104.85 25.93 1134.82 37.18 1166.71 36.67 1197.73 29.75 1234.99 18.11 1255.27 41.77 1239.32 79.72 1226.21 111.9 1216.07 145.64 1213.44 178.58 1222.06 210.46 1241.27 239.31 1268.64 265.09 1299.51 288.53 1327.1 309.63 1345.05 329.29 1350.08 347.68 1340.64 365.84 1319.65 384.44 1294.84 402.75 1272.69 422.12 1260.35 442.77Q1260.35 442.77 1260.35 442.77" opacity="0.97"></path><path d="M1228.85 437.71C1230.93 457.28 1244.64 475.29 1265.69 491.59 1298.22 514.7 1302.8 549.18 1269.19 560.38 1240.02 567.53 1211.99 573.84 1189.63 580.68 1176.31 590.79 1172.28 604.22 1176.06 622.67 1186.05 646.86 1197.41 676.64 1206.4 710.89 1211.25 746.14 1208.64 779.65 1198.04 806.94 1180.44 824.52 1156.62 830.38 1128.81 824.67 1098.99 812.84 1069.35 799.58 1041.61 792.6 1016.78 799.35 995.62 821.33 978.06 856.35 958.71 913.33 932.94 937.11 921.67 901.54 914.33 884.84 905.53 887.34 895.02 912.18 877.83 969.53 834.36 982.21 808.85 933.53 791.31 916.57 772.7 926.37 753.13 958.75 733.56 995.93 713.48 1015.2 692.9 1005.82 672.21 973.33 650.81 934.17 628.59 907.82 606.04 906.27 582.46 926.88 557.8 956.07 532.8 978.21 506.85 979.19 480.27 956.97 454.06 919.46 428.1 879.99 403.26 851.6 348.94 868.11 321.4 847.79 326.95 792.78 329.11 756.79 328.5 728.72 322.99 710.74 310.48 703.24 291.3 703.2 266.07 706.66 236.7 711.81 206.38 713.66 178.92 710.26 157.69 702.04 145.77 687.64 144.75 668.29 152.76 645.04 168.05 619.22 186.17 592.42 200.52 564.45 207.6 537.14 204.1 511.14 188.77 485.22 164.89 460.89 137.54 438.22 112.63 415.66 96.93 394.58 94.85 375.01 106.2 355.44 128.58 337.84 155.91 322.27 191.18 283.71 145.25 242.02 138.99 226.88 148.34 212.32 167.86 193.65 194.59 169.74 224.63 141 254.21 107.96 279.95 72.64 310.11 2.22 304.38 8.06 307.87 12.09 315.81 -3.75 328.95 -33.74 346.6 -72.71 367.81 -110.78 391.92 -137.71 417.73 -145.52 444.82 -134.59 472.01 -111.08 498.62 -87.91 524.92 -80.03 550.06 -93.74 573.93 -126.93 597.1 -167.15 619.18 -197.12 640.35 -203.14 661.06 -184.34 681.25 -150.95 701.09 -122.32 720.81 -116.81 740.43 -138.04 760 -175.22 779.57 -207.61 798.63 -215.43 817.04 -194.62 844.01 -139.18 891.72 -129.19 911.15 -170.82 922.79 -184.62 932.42 -174.39 940.04 -143.34 950.28 -85.45 968.14 -56.84 980.63 -83.97 993.15 -98.61 1009.14 -98.8 1029.2 -82.44 1053.37 -52.35 1080.93 -14.67 1110.66 22.8 1140.54 54.17 1168.58 75.19 1192.21 85.61 1212.03 78.81 1180.67 105.65 1183.88 139.27 1199.11 166.35 1222.6 194.8 1251.03 223.16 1279.79 251.92 1303.08 279.28 1316.04 304.9 1316.92 330.08 1305.2 353.61 1284.07 375.63 1260.61 397.46 1240.21 418.13 1228.85 437.7Q1228.85 437.71 1228.85 437.71" opacity="0.55"></path><path d="M1197.35 380.26C1198.95 398.75 1211.02 415.3 1230.1 430.06 1261.68 451.65 1276.44 490.17 1250.39 510.25 1224.2 526 1196.26 543.93 1170.84 564.99 1151.62 589.22 1140.12 616.95 1136.42 647.73 1140.27 679.31 1148.36 710.73 1157.69 739.23 1168.97 769.37 1156.41 775.45 1130.22 759.35 1106.56 752.19 1079.98 753.12 1052.25 766.18 1024.46 792.09 998.06 827.18 973.82 864.63 942.49 904.09 895.73 884.36 877.72 853.57 867.43 850.18 857.11 866.33 846.27 898.94 830.19 951.32 792.11 942.89 769.54 897.35 754 884.65 736.99 896.16 718.51 927.24 700.02 962.62 680.5 982.78 660.04 977.66 639.57 950.23 618.16 912.8 595.93 882.27 573.77 871.5 550.96 882.55 527.79 907.46 505.09 934.08 482.58 947.6 460.85 940.9 440.51 915.36 421.89 878.47 405.76 841.82 378.56 821.94 372.88 844.65 372.91 811.89 368.04 778.55 358.64 742.99 343.76 710.15 323.07 683.02 297.78 663.75 269.6 651.89 204.07 646.67 203.83 628.73 227.54 608.81 237.65 592.3 239.85 573.71 232.23 553.98 214.63 533.32 190.54 512.54 164.63 492.22 141.89 471.69 127.95 452.07 126.35 433.58 136.76 415.1 157.3 398.19 182.95 382.71 216.96 359.68 230.51 315.18 210.66 290.33 193.4 271.16 179.63 249.44 172.88 224.58 174.37 197.31 185.64 167.36 205.3 135.77 230.74 105.15 259.21 76.67 287.46 53.09 340.35 36.36 355.41 51.59 352.88 25.73 353.24 -6.31 357.25 -43.66 365.16 -78.33 376.19 -102.17 390.93 -109.69 408.68 -99.91 428.75 -79.75 450.67 -57.92 473.63 -45.92 497.55 -52.76 521.59 -78.31 545.26 -115.36 569.06 -150.7 592.12 -170.59 614.3 -166.96 636.36 -143.57 657.54 -111.58 677.8 -87.79 698 -86.32 717.37 -108.34 735.85 -143.72 754.34 -174.81 771.5 -184.45 787.3 -168.12 810.2 -116.2 848.41 -86.35 863.74 -123.88 873.61 -146.06 882.4 -150.19 890.51 -133.25 899.58 -100.51 908.9 -62.26 919.18 -30.17 931.78 -12.62 946.51 -11.74 963.97 -23.43 984.55 -41.64 1008.05 -56.16 1034.13 -60.24 1061.73 -51.47 1089.88 -29.33 1116.91 2.04 1141.06 37.86 1160.7 72.26 1174.18 101.06 1171.36 133.89 1145.76 138.55 1159.71 148.11 1180.01 159.08 1205.83 173.98 1233.51 191.77 1258.95 211.68 1277.47 233.02 1285.58 254.81 1282.8 277.36 1269.32 299.45 1248.42 320.56 1226.43 341.81 1207.76 361.78 1197.35 380.26Q1197.35 380.26 1197.35 380.26" opacity="0.69"></path><path d="M1165.85 350.21C1167.01 367.61 1177.52 385 1194.64 402.5 1215.41 420.24 1234.08 438.54 1246.54 457.78 1245.73 498.57 1208.07 546.46 1155.7 601.57 1115.69 655.3 1101.44 702.29 1108.4 727.91 1125.66 730.35 1131.61 715.26 1117.36 708.37 1084.73 738.72 1037.91 802.62 987.06 863.11 937.56 876.4 894.56 841.4 858.17 815.01 827.55 852.13 799.56 920.83 771.12 938.01 757.42 917.98 743 887.92 727.69 861.76 712.45 853.12 696.16 866.04 678.76 895.74 661.36 929.27 643.27 950.02 624.62 948.77 606.05 926.57 587.08 892.13 567.97 859.45 530.79 843.09 495.48 886.7 465.81 913.64 441.9 877.21 427.6 807.43 423.48 768.22 420.69 780.89 417.56 807.87 404.6 806.31 373.24 766.02 326.04 702.66 272.55 644.43 229.36 604.97 212.4 585.66 226.91 574.9 262.71 563.21 227.95 516.56 191.84 494.66 171.29 479.35 159.01 462.91 157.85 445.52 167.35 428.12 186.08 410.17 209.94 391.59 233.73 372.81 253.54 353.02 266.12 331.95 262.97 288.11 235.85 237.49 211.62 182.54 209.36 133.01 239.87 95.01 290.41 80.84 342.29 85.45 380.55 98.85 400.81 93.55 404.07 49.51 402.63 -18.7 405.91 -67.62 414.65 -64.64 435.42 -26.06 465.52 -15.13 501.42 -67.56 541.12 -130.98 580.87 -128.06 601.11 -102.1 620.87 -72.78 639.93 -54.01 659.04 -56.19 677.35 -78.69 694.75 -112.22 712.14 -141.93 728.21 -153.1 743 -141.02 757.82 -111.43 771.45 -76.24 784.02 -49.5 809.89 -53.24 833.49 -102.14 857.89 -113.76 888.08 -61.87 924.61 4.33 969.49 27.27 1019.85 3.01 1071.24 -19.63 1113.58 -4.38 1138.93 48.1 1141.92 113.14 1126.27 164.33 1111.95 192.34 1112.64 202.64 1140.41 209.21 1190.14 214.4 1237.07 229.81 1253.64 254.64 1247.77 268.2 1233.09 283.29 1212.74 299.44 1192.32 315.82 1175.35 332.81 1165.85 350.21Q1165.85 350.21 1165.85 350.21" opacity="0.10"></path><path d="M1134.35 389.27C1145.15 421.89 1179.53 460.27 1210.39 503.57 1217.45 546.35 1190.16 591.2 1142.69 631.65 1083.52 668.31 1080.75 663.72 1086.93 693.04 1073.72 750.06 1043.68 811.65 1003.03 840.08 956.62 823.68 910.16 788.53 867.24 788.09 827.19 841.9 791.13 900.66 757.66 899.89 725.58 849.84 693.62 822.75 661 864.25 628.38 917.91 596.65 902.48 567.21 838.84 539.16 807.25 515.88 836.28 499.41 874.78 485.8 868.04 478.54 810.21 474.68 750.36 465.05 728.99 448.26 744.44 418.72 763.65 375.6 762.55 325.29 727.87 280.06 674.17 252.21 616.04 250.43 568.49 271.95 533.93 295.51 510.59 304.23 491.86 284.59 471.28 241.14 452.21 200.15 426.87 189.35 394.25 214.33 361.63 259.24 323.29 294.47 280.84 299.45 239.9 279.43 199.29 254.18 166.1 240.85 144.12 255.45 137.95 293.94 145.81 343.64 149.23 390.77 137.09 425.78 95.45 444.92 33.48 453.13 -20.64 457.8 -33.24 460.19 -7.36 469.24 21.21 486.23 4.05 507.45 -58.34 535.04 -105.95 566.18 -86.96 598.74 -35.91 632.09 -27.07 664.71 -80.72 697.33 -122.24 727.68 -88.55 756.63 -25.91 787.01 -12.54 818.76 -52.73 854.06 -82.64 893.6 -58.29 938.27 6.1 986.15 56.47 1031.76 62.01 1070.38 39.1 1094 24.82 1101.75 38.79 1093.3 84.56 1077.56 142.28 1073.03 197.13 1087.68 237.03 1124.92 263.81 1174.07 279.89 1212.66 294.38 1220.27 313.12 1197.64 331.33 1159.34 356.64 1134.35 389.26Q1134.35 389.27 1134.35 389.27" opacity="0.15"></path><path d="M1102.89 443.05C1111.7 473.5 1142.25 505.99 1172.98 538 1186.58 567.31 1169.88 590.91 1130.29 604.14 1084.39 610.97 1047.34 609.08 1027.59 606.77 1026.93 619.88 1035.09 653.48 1041.6 708.05 1042.78 764.8 1030.39 799.65 1005.75 793.89 972.41 764.93 933.17 746.37 892.7 772.15 851.32 832.43 812.22 875.39 776.25 859.24 740.87 810.8 707.94 791.71 677.49 832.59 647.05 884.26 620.53 876.93 598.49 819.61 577.05 776.76 560.77 787.57 549.39 826.45 537.1 844.78 526.2 812.27 512.62 752.07 490.34 702.88 459.02 688.08 417.93 698.88 371.52 717.4 327.26 717.49 296.23 693.79 284.27 651.68 294.02 601.18 317.6 552.94 334.88 508.34 334.25 471.32 308.9 439.37 266.42 410.13 229.7 381.23 220.89 350.79 243.48 320.34 285.18 289.8 321.57 261.62 327.58 226.97 279.26 205.29 303.21 200.66 343.22 177.44 390.3 133.64 433.71 75.22 467.32 24.52 489.77 3.22 504.31 20.71 511.64 49.21 519.24 54.42 530.61 13.77 542.76 -47.42 560.77 -75.55 583.9 -44.45 607.99 1.11 635.72 2.27 666.16 -49.39 696.61 -90.27 728.33 -65.01 761.65 -4.82 795.94 23.07 833.31 -2.56 873.92 -40.52 915.31 -43.98 957.85 1.87 997.44 62.53 1040.45 100.61 1048.38 74.77 1034.57 113.65 1042.63 162.87 1069.32 214.9 1111.55 260.83 1156.6 300.36 1185.9 332.14 1185.65 360.25 1161.01 385.65 1125.48 412.61 1102.89 443.05Q1102.89 443.05 1102.89 443.05" opacity="1.00"></path><path d="M1071.35 437.14C1078.65 465.41 1105.47 488.94 1135.03 506.7 1153.24 523.31 1146.15 533.13 1116.1 537.66 1074.32 545.86 1032.99 558.15 1002.51 582.68 988.2 622.78 986.35 674.88 989.99 726.05 995.85 758.87 955.33 716.32 911.99 764.53 878.21 820.69 843.5 844.91 810.1 817.14 776.33 772.87 744.9 761.35 716.63 801.24 688.36 850.59 664.59 850.54 645.04 801.47 625.13 752.09 608.41 744.23 593.2 773.67 574.75 806.33 553.79 802.49 527.43 760.49 493.99 703.57 454.15 660.61 410.86 643.92 354.34 657.42 332.41 643.56 361.46 594.58 370.78 552.8 361.78 511.4 332.67 473.88 292.2 436.77 259.65 404.01 252.35 375.73 272.37 347.46 310.56 325.02 347.2 308.82 365.27 293.03 361.9 283 344.56 275.78 322.62 262.61 312.81 242.39 321.63 208.62 347.22 162.2 386.05 109.1 429.24 64.8 470.51 44.44 505.04 53.87 531.94 81.36 551.03 93.93 566.04 72.42 580.35 19.04 592.43 -31.11 607.56 -39.35 626.86 -0.89 646.2 37.27 670.02 31.61 698.29 -17.72 726.56 -57.62 757.94 -40.4 791.92 14.78 825.94 53.47 862.23 45.35 899.15 9.91 933.83 -14.21 965.38 4.4 989.85 55.39 1009.56 125.93 999.57 127.06 1000.76 124.77 1021.37 143.81 1056.54 178.07 1099.2 218.86 1137.26 263.33 1156.72 304.94 1149.56 341.64 1123.83 377.2 1091.37 408.87 1071.35 437.14Q1071.35 437.14 1071.35 437.14" opacity="0.94"></path><path d="M1039.84 379.48C1045.61 405.58 1068.65 426.36 1096.24 442.84 1117.47 460.66 1118.81 477.42 1099.08 497.17 1064.94 524.14 1024.62 559.78 988.05 604.52 954.74 672.08 944.81 709.09 943.3 677.37 938.08 677.06 925.65 707.6 907.16 759.81 885.41 803.22 860.05 808.78 833.24 773.86 805.57 735.77 778.16 731.23 752.06 769.77 725.97 816.49 702.42 822.7 680.88 783.15 658.48 732.14 636.37 708.12 612.89 721.6 586.16 755.46 555.62 773.64 520.61 758.79 482.81 716.15 443.53 664.12 407.32 622.69 370.5 599.58 379.02 607.28 402.49 593.73 403.09 574.51 386.9 548.41 355.6 519.8 317.94 489.43 289.61 460.29 283.84 434.19 301.52 408.1 336.02 386.28 371.83 367.44 394.35 346.84 399.01 325.47 388.87 299.46 369.25 266.72 354.06 225.88 351.23 179.01 361.74 134.92 387.2 100.95 422.17 88.12 461.65 95.34 500.61 116.43 535.59 131.91 565.78 119.58 591.06 78 613.1 25.01 631.87 -7.59 650.52 1.57 670.75 42.51 690.31 71.99 712.9 60.49 738.99 13.77 765.09 -24.76 793.45 -14.93 823.11 33.22 852.1 78.21 880.92 87.5 907.37 63.21 930.55 30.13 948.25 23 958.28 50.48 963.52 100.07 962.03 149.61 956.75 182.22 955.98 192.55 961.46 188.31 978.11 181.83 1008.11 177.31 1046.7 184.64 1085.45 202.89 1114.72 228.37 1124.92 259.08 1112.48 290.47 1086.75 323.2 1057.53 353.38 1039.84 379.47Q1039.84 379.48 1039.84 379.48" opacity="0.38"></path><path d="M1008.35 350.31C1012.73 374.23 1032.08 398.35 1057.02 423.64 1079.6 450.5 1087.58 481.14 1077.75 516.78 1053.39 554.62 1018.71 595.21 981.7 633.13 936.11 668.41 896.48 648.18 891.23 637.41 889.45 660.78 883.89 705.19 873.69 752.33 861.94 778.02 845.75 767.79 826.17 730.37 805.88 699.86 783.43 701.44 759.51 738.25 735.58 782.05 711.33 793.47 686.51 764.04 660.98 715.91 633.65 680.45 603.94 675.8 572.69 699.35 538.86 726.46 503.77 735.5 470.19 719.51 439.77 680.93 416.57 634.58 402.11 592.19 398.99 562.85 407.06 546.45 425.77 540.9 420.71 528.11 378.1 507.27 343.92 490.16 319.73 469.09 315.35 445.17 330.8 421.25 361.51 395.61 395.56 367.61 420.96 338.33 432.55 304.83 430.34 267.06 416.32 229.05 400.78 190.95 391.14 158.99 389.4 138.52 400.55 133.52 422.68 144.55 452.46 159.55 486.93 169.77 522.07 160.86 556.67 126.91 588.46 78.35 617.07 37.26 643.38 24.37 667.7 46.21 691.05 85.1 713.62 105.32 736.68 89.07 760.6 45.27 784.52 8.44 808.17 11.7 830.71 51.44 862.07 110.02 903.46 72.71 909.53 62.76 911.26 90.22 911.13 135.02 912.7 180.74 921.93 216.66 939.14 237.15 965.79 245.67 1000.34 244.61 1037.33 243.42 1068.88 247.04 1088.62 252.85 1090.65 265.72 1074.49 283.98 1049.67 303.8 1023.8 326.38 1008.35 350.31Q1008.35 350.31 1008.35 350.31" opacity="0.85"></path><path d="M976.85 390.09C979.99 411.83 995.8 437.42 1017.59 466.3 1039.99 495.11 1052.55 526.49 1051.24 558.15 1037.23 586.22 1011.35 609.22 979.05 622.5 945.36 626.43 914.36 619.4 888.67 605.59 869.58 597.2 855.89 599.88 845.6 621.19 835.84 682.12 810.07 733.71 789.32 687.44 774.13 665.22 755.58 671.98 733.84 706.74 712.09 747.36 688.17 762.77 662.36 743.32 636.36 701.77 608.27 660.85 578.72 640.25 549.61 646.72 520.45 668.79 493.37 689.25 470.14 697.57 452.61 684.44 443.2 654.2 440.39 614 445.6 573.17 456.64 538.29 466.3 511.03 472.68 491.86 470.75 477.54 456.12 467.77 431.18 457.59 400.39 444.55 370.2 432.04 349.99 415.15 346.85 393.4 360.19 371.66 387.08 346.09 418.59 317.59 445.26 289.62 462.2 260.23 467.59 232.32 442.31 196.43 466.66 204.13 506.25 166.85 536.69 123.75 567.54 82.18 597.11 59.76 626.27 64.41 653.48 92.96 678.62 126.11 703.35 137.18 726.62 117.37 748.37 76.76 770.12 41.99 789.3 39.63 805.58 70.23 827.63 131.09 852.93 127.33 858.49 98.79 864.22 100.12 871.81 123.22 883.88 160.12 903.25 202.43 929.22 240.68 960.67 270.27 994.45 290.5 1025.65 303.31 1048.08 312.93 1058.63 318.96 1054.07 327.13 1035.79 339.34 1012.67 351.46 990.19 368.34 976.85 390.09Q976.85 390.09 976.85 390.09" opacity="0.64"></path><path d="M945.37 443.53C947.38 463.1 959.81 484.01 978.11 505.09 1006.52 534.07 1006.85 567.99 974.96 565.58 946.23 560.46 915.75 554.28 886.7 553.06 860.59 564.02 838.39 588.03 819.84 623.93 798.6 680.21 762.9 689.48 742.64 645.79 728.7 631.92 712.05 642.77 692.48 675.15 672.91 712.33 651.34 730.52 628.37 720.29 605.66 687.85 582.17 647.51 559.08 616.4 508.06 630.71 492.8 616.31 504.8 567.7 508.42 532.38 506.63 500.16 496.8 472.4 477.26 447.74 451.07 426.51 422.63 407.1 396.78 388.82 380.38 370.26 378.37 350.69 389.79 331.12 412.9 311.46 441.27 292.82 488.2 256.84 474.76 255.08 471.58 249.43 476.07 230.14 487.41 198.75 504.14 159.4 524.51 121.96 547.8 96.99 572.14 93.96 597.55 110.72 622.45 139.92 645.89 164.81 669.42 167.49 691.2 145.33 710.78 108.15 730.35 75.77 746.78 68.88 760.16 90.31 778.98 147.12 806.89 180.89 821.16 153.77 834.59 138.24 851.35 137.43 872.51 152.13 898.3 179 927.59 213.28 958 248.57 986.47 282.68 1009.24 311.84 1022.2 335.95 1024.84 356.28 1015.6 373.89 996.75 390.81 975.94 406.65 956.79 423.96 945.37 443.53Q945.37 443.53 945.37 443.53" opacity="0.23"></path><path d="M913.84 436.56C919.72 461.2 965.26 493.66 982.2 499.5 979.95 505.06 944.1 508.43 893.24 535.84 840.89 596.1 796.27 661.19 760 672.78 744.01 655.44 728.5 629.28 712.81 606.35 697.53 600.24 681.29 614.05 663.89 643.76 646.49 677.29 628.76 697 611.24 694.7 594.12 672.53 577.98 637.87 563.82 603.27 539.79 571.01 530.11 589.44 536.86 609.58 542.12 605.37 541.06 564.52 517.81 512.96 495.85 485.36 470.47 459.66 445.41 436.71 423.97 414.01 411 393.85 409.84 376.46 419.34 359.06 438.71 345.24 463.45 335.13 499.27 322.3 530.64 301.32 518.57 253.2 516.28 187.45 533.45 132.12 563.68 138.87 581 160.73 599.53 185.48 618.22 200.94 637.26 196.53 655.76 173.29 673.15 139.76 690.55 110.05 706.02 99.77 719.79 112.59 733.91 142.23 747.03 178.29 759.86 208.38 789.92 222.3 827.06 194.12 874.95 179.46 928.07 197.65 974.09 248.59 990.87 303.32 987.38 330.95 975.36 355.95 957.21 378.08 939.18 399.69 923.34 419.16 913.84 436.56Q913.84 436.56 913.84 436.56" opacity="0.65"></path><path d="M882.37 378.63C891.24 409.07 917.76 427.66 940.77 440.44 950.82 462.1 933.91 496.16 898.59 549.87 854.28 607.16 808.93 641.81 768.96 625.12 731.51 586.06 697.84 571.26 667.39 612.14 636.95 663.81 612.61 654.28 597.31 596.78 583.43 539.53 574.48 561.37 534.43 535.43 489.1 501.87 450.24 465.15 441.37 434.71 463.93 404.26 507.76 382.97 548.1 363.77 568.83 334.83 572.69 291.57 570.36 233.44 563.7 181.67 567.94 161.62 584.02 190.43 603.82 225.62 631.01 222.81 661.46 171.14 691.9 130.26 722.71 157.4 755.68 218.78 792.35 257.78 835.63 255.42 882.19 238.03 924.42 224.23 952.85 237.68 954.44 268.79 936.41 308.77 904.93 348.18 882.37 378.63Q882.37 378.63 882.37 378.63" opacity="0.75"></path><path d="M850.85 350.41C856.62 376.5 876.23 403.81 896.67 436.05 912.94 473.72 910.96 520.92 892.61 568.51 864.2 600.41 828.87 602.83 794.03 572.48 758.55 543.4 726.62 542.22 700.53 580.75 674.43 627.48 656.64 631.45 646.89 591.96 636.51 538.87 631.11 501.9 625.32 489.01 609.47 496.19 583.77 502.88 548.38 498.28 508.81 490.1 478.62 470.9 472.85 444.81 490.53 418.71 526.84 388.19 565.18 351.14 593.25 310.52 609.32 263.11 616.99 221.72 617.56 205.06 648.16 256.75 683.57 202.75 709.67 164.22 740.76 175.97 775.65 224.18 811.13 273.66 849.43 298.91 884.28 301.22 916.62 284.59 881.41 313.1 850.85 350.4Q850.85 350.41 850.85 350.41" opacity="0.19"></path><path d="M819.37 390.84C822.46 412.59 835.44 442.07 851.08 476.6 871.37 525.5 847.8 556.72 813.74 520.03 787.96 505.14 762.7 514.41 740.96 549.17 719.21 589.79 703.04 602.97 691.13 582.76 677.31 542.12 663.76 498.23 647.11 465.69 623.49 447.57 593.7 439.03 560.84 431.2 529.25 426.4 507.46 414.24 504.37 392.5 517.76 370.75 546.2 341.48 579.36 308.59 620.88 266.03 663.23 257.4 678.05 292.52 687.44 296.79 702.52 274.79 724.27 234.17 746.01 199.41 772.36 198.96 800.66 229.78 827.65 274.16 853.34 313.73 872.29 338.33 883.66 348.23 842.58 363.12 819.37 390.84Q819.37 390.84 819.37 390.84" opacity="0.48"></path><path d="M787.85 444.02C812.64 497.49 810.32 485.97 760.84 517.74 726.04 573.04 692.43 542.36 652.24 476.39 600.89 420.27 548.59 385.43 535.85 350.64 563.45 315.85 618.84 287.68 664.56 298.2 694.59 318.57 721.25 321.04 756.04 265.74 790.83 223.99 827.17 272.16 842.75 338.62 842.63 383.57 815.45 409.23 787.85 444.02Q787.85 444.02 787.85 444.02" opacity="0.09"></path><path d="M756.35 436C768.51 465.2 779.07 444.96 746.81 486.25 720.71 532.98 685.79 532.33 646.69 496.45 607.06 447.23 573.12 403.32 567.35 377.23 585.03 351.13 624.96 347.78 664.56 362.8 699.88 364.48 730.89 343.98 756.99 297.25 783.09 258.72 799.32 274.35 798.21 318.25 792.81 368.86 774.03 409.9 756.35 436Q756.35 436 756.35 436" opacity="0.33"></path><path d="M724.85 377.98C737.6 412.77 743.14 413 708.35 454.75 673.55 510.06 611.6 470.21 598.85 435.42 626.45 400.62 691.77 384.06 726.57 328.75 761.36 287 752.45 343.18 724.85 377.98Q724.85 377.98 724.85 377.98" opacity="0.65"></path></g></svg>