<svg xmlns="http://www.w3.org/2000/svg" version="1.1" xmlns:xlink="http://www.w3.org/1999/xlink"  viewBox="0 0 1422 800"><defs><linearGradient x1="50%" y1="0%" x2="50%" y2="100%" id="ssscribble-grad"><stop stop-color="hsl(206, 100%, 38%)" stop-opacity="1" offset="0%"></stop><stop stop-color="hsl(331, 90%, 56%)" stop-opacity="1" offset="100%"></stop></linearGradient></defs><g fill="none" stroke-width="1" stroke="url(#ssscribble-grad)" stroke-linecap="round"><path d="M1311.26 119.03C1312.9 148.65 1651.56 182.93 1878.03 222.5 1703.67 263.23 1350.41 311.41 1251.51 368.68 1515.07 429.39 1811.26 501.32 1791.5 584.89 1477.34 670.98 1214.67 765.98 1268.27 865.52 1564.15 957.09 1780.24 1041.2 1702.2 1108.09 1401.24 1148.22 1150.86 1157.11 1150.09 1128.95 1377.61 1070.5 1621.9 983.35 1685.13 880.19 1520.54 787.24 1245.19 717.69 1036.28 693.34 1001.6 728.98 1138.66 825.27 1340.94 972.42 1500.48 1139.96 1526.44 1297.49 1419.53 1406.46 1221.37 1437.82 1013.75 1382.76 858.78 1253.88 780.94 1095.4 788.37 953.71 852.19 881.08 954.77 910.77 1054.16 1039.15 1129.05 1229.92 1184.39 1416.88 1203.85 1535.46 1195.55 1538.42 1169.66 1425.37 1130.87 1237.66 1089.42 1051.42 1043.64 948.98 1004.1 973.88 974.49 1120.65 944.87 1327.34 925.87 1500.69 913.96 1568.43 897.73 1505.63 879.68 1338.59 849.71 1136.32 802.16 974.65 727.84 912.86 618.76 965.86 490.14 1110.49 338.15 1286.28 184.24 1428.46 69.09 1491.99 11.62 1453.01 40.83 1327.32 147.17 1150.17 307.59 973.63 460.09 841.93 521.36 781.14 451.32 799.51 249.41 880.66 4.75 1003.07 -172.97 1128.16 -177.1 1226.21 -7.01 1282.24 231.36 1281.35 360.98 1228.18 262.78 1130.99 -14.47 1007.53 -272.84 876.37 -302.9 745.62 -81.22 633.47 193.31 546.08 124.82 463.42 -266.48 435.65 152.65 457.69 0.53 490.21 -169.87 525.26 170.89 518.72 -61.42 510.67 -403.09 491.97 -404.73 462.35 -61.25 432.74 168.59 392.91 -7.05 343.28 -355.97 293.52 -428.91 233.92 -141.13 165.47 160.61 98.05 124.33 24.18 -185.65 -52.56 -408.55 -122.21 -288.16 -187.07 40.36 -240.11 244.34 -274.62 131.22 -287.11 -158.53 -271.87 -339.94 -233.12 -235.38 -168.18 55.92 -83.08 299.96 2.42 311.05 81.8 114.42 136.63 -130.02 147.44 -229.71 107.68 -124.35 12.85 122.55 -124 362.52 -286.05 479.32 -443.44 436.64 -559.58 280.57 -610.94 105.29 -581 -19.74 -480.16 -36.26 -332.32 47.73 -181.58 206.83 -82.29 387.09 -67.43 545.93 -152.64 670.8 -316.52 740.4 -511.59 764.73 -672.95 751.99 -742.68 720.36 -695.07 687.02 -544.85 631.31 -274.84 603.41 -300.41 638.01 -595.26 667.63 -742.07 716.19 -764.01 783.22 -655.74 850.48 -463.66 935.26 -267.22 1032.86 -142.71 1122.05 -134.22 1208.55 -238.62 1275.02 -408.87 1304.42 -582.93 1287.42 -692.05 1213.87 -700.06 1106.36 -605.74 976.15 -439.93 865.68 -255.03 830.31 -99.72 894.04 -15.94 1064.73 -16.44 1285.65 -94.56 1485.8 -219.11 1570.85 -351.68 1496.43 -463.86 1297.13 -523.21 1089.03 -520.04 1022.49 -456.89 1159.14 -346.68 1438.56 -211.37 1670.17 -65.83 1692.06 65.4 1478.85 169.5 1218.38 243.31 1142.52 281.65 1350.34 290.15 1666.52 271.9 1803.77 237.84 1621.5 197.6 1314.68 149.39 1213.57 107 1453.19 74.63 1779.89 44.79 1830.31 27.72 1539.99 22.86 1263.64 21.44 1345.3 30.11 1700.08 47.05 1881.59 65.17 1654.74 89.42 1311.26 119.03Q1311.26 119.03 1311.26 119.03" opacity="0.60"></path><path d="M1272.26 332.72C1264.02 360.99 1578.32 398.97 1829.77 446.29 1723.13 493.76 1384.11 550.66 1198.41 616.15 1362.92 680.85 1682.33 752.16 1806.25 826.98 1605.44 895.78 1284.26 961.38 1152.34 1017.47 1319.43 1057.06 1608.25 1077.41 1745.68 1072.55 1611.18 1044.68 1317.55 990.54 1097.86 913.64 1102.9 830.55 1306.77 745.76 1539.56 675.45 1640.82 640.04 1538.14 647.26 1304.06 706.41 1062.08 813.2 939.02 957.52 969.75 1117.58 1122.27 1259.87 1303.95 1359.46 1430.69 1391.15 1462.03 1347.89 1385.6 1237.75 1238.75 1088.28 1054.86 947.47 888.56 854.02 767.18 843.53 693.99 926.99 673.48 1085.35 688.06 1274.33 731.8 1432.88 781.55 1510.44 823.53 1477.26 868.21 1346.22 895.02 1161.28 902.62 991.59 908.76 906.46 897.36 939.17 869.09 1081.65 840.82 1278.9 796.35 1449.21 735.15 1527.54 672.48 1487.34 591.41 1344.03 493.41 1152.59 398.12 978.86 295.99 882.14 200.96 888.67 135.1 992.12 105.4 1150.59 129.6 1308.68 201.99 1420.24 320.51 1447.5 457.98 1385.8 558.41 1251.88 589.78 1082.48 514.87 919.55 344.56 794.95 120.79 734.35 -72.16 741.02 -143.34 808.08 -59.09 911.57 145.82 1024.41 342.85 1129.34 410.24 1200.36 275.6 1228 9.43 1211.99 -225.91 1154.31 -260.38 1066.65 -70.12 955.85 196.1 838.32 305.38 725.35 142.73 617.68 -169.11 527.12 -356.92 455.13 -245.72 397.7 57.04 357.02 241.89 328.88 -64.42 305.2 -66.16 279.53 200.23 261.48 -56.8 248.57 -373.97 228.46 -365.73 200.19 -39.37 171.92 202.92 136.17 76.9 94.01 -261.92 52.75 -410.37 6.98 -203.57 -40.65 127.99 -84.05 224.7 -124.73 2.33 -158.2 -296.28 -181.35 -354.15 -190.89 -119.1 -182.45 187.96 -159.46 286.75 -116.69 113.67 -55.44 -165.59 11.11 -297.17 83.57 -177.85 150.81 102.71 194.9 336.46 210.52 377.25 186.09 218.5 118.01 -11.71 8.18 -159.39 -133.78 -141.97 -283.67 31.56 -422.45 265.24 -522.91 463.99 -562.98 546.22 -533.87 506.72 -438.72 374.79 -305.23 220.1 -163.22 100.58 -54.51 40.41 -18.01 59.47 -68.28 139.43 -200.55 265.77 -379.35 405.28 -556.23 535.01 -675.65 657.34 -698.16 751.67 -614.97 820.27 -452.16 874.75 -271.63 912.7 -136.62 942.25 -101.98 967.52 -185.86 992.65 -359.01 1020.92 -556.26 1049.19 -698.78 1079.93 -728.66 1109.72 -637.98 1135.24 -462.71 1151.55 -269.43 1150.38 -127.46 1135.1 -83.34 1093.14 -147.38 1022.1 -289.97 943.67 -463 854.37 -602.97 777.02 -665.73 746.05 -634.52 774.76 -518.05 881.36 -352.02 1047.29 -177.34 1247.04 -39.79 1422.55 32.9 1505.62 30.65 1465.46 -37.44 1307.16 -146.35 1113.93 -273.03 979.21 -382.07 998.84 -451.81 1183.58 -473.91 1449.08 -442.32 1641.21 -366.46 1633.81 -255.7 1431.54 -128.83 1180.39 -2.18 1090.52 118.29 1249.48 217.5 1553.97 291.78 1714.4 356.78 1213.98 365.1 1566.69 339.89 1805.01 316.36 1721.8 297.42 1401.14 286.04 1205.26 273.86 1362.02 271.22 1706.45 278.82 1838.06 286.56 1598.62 304.45 1272.26 332.72Q1272.26 332.72 1272.26 332.72" opacity="0.36"></path><path d="M1233.26 595.88C1215.98 622.81 1504.47 656.96 1773.15 697.36 1732.87 736.96 1427.91 781.12 1178.79 827.45 1231.51 870.01 1520.06 910.65 1749.31 945.28 1700.04 970.59 1417.39 983.92 1157.64 981.02 1135.34 964.22 1352.74 928.51 1609.69 874.11 1698.51 812.13 1545.63 740.92 1270.75 669.54 1056.96 614.93 1039.7 581.46 1202 581.15 1431.97 621.5 1575.24 703.4 1555.37 823.14 1384.23 963.25 1150.95 1109.02 959.57 1236.24 872.89 1319.26 911.53 1343.66 1034.23 1300.75 1194.35 1202.4 1322.16 1067.09 1382.84 928.29 1369.96 828.43 1289.07 793.94 1168.82 842.65 1022.87 967.16 884.95 1139.03 769.98 1312.38 672.21 1435.44 604.08 1471.98 558.78 1407.36 527.92 1263.98 507.8 1085.63 490.17 933.58 476.23 865.1 457.3 904.73 430.37 1042.65 403.45 1230.42 369.17 1396.88 330.67 1484.08 295.86 1465.05 264.31 1346.42 244.39 1170.44 238.91 992.42 257.16 868.47 306.09 831.76 372.2 889.09 462.3 1016.35 561.6 1170.74 635.19 1310.83 670.58 1392.93 639.25 1397.55 534.36 1325.14 363.64 1193.81 162.02 1035.56 -2.17 879.77 -80.88 759.27 -32.72 691.44 120.12 682.16 316.43 725.7 452.28 805.39 436.87 908.26 259.99 1008.62 -1.76 1089.69 -195.85 1145.78 -208.56 1165.11 -22.81 1149.14 224.02 1101.68 350.81 1029.37 237.98 942.16 -42.98 842.34 -282.31 742.44 -279.75 648.75 -39.74 557.81 225.37 478.89 259.44 412.4 15 352.43 -286.4 303.3 -349.51 262.69 -110.77 226.18 186.25 194.72 221.2 166.13 -52.79 138.69 -344.01 111.91 -326.73 84.99 -17.72 58.06 233.41 31.64 155.89 6.63 -264.18 -27.32 166.97 -62.24 173.48 -51.51 -119.08 -33.86 -320.67 -2.76 -249.37 41.5 32.85 88.53 285.65 142.93 315.8 198.54 116.34 241.55 -137.91 270.95 -250.09 276.93 -141.65 251.41 112.8 192.02 348.81 97.42 438.53 -22.16 345.7 -159.49 149.64 -297.65 -41.34 -412.63 -117.7 -489.79 -52.38 -512.32 125.93 -476.3 339.38 -385.79 513.21 -258.03 608.03 -127.82 605.37 -22.56 531.23 25.84 410.02 -2.77 290.42 -106.79 201.35 -266.61 146.61 -440.74 140.66 -585.54 172.7 -658.08 235.17 -636.59 313.37 -525.51 393.21 -357.89 480.55 -192.3 556.89 -81.57 617.88 -67.84 679.03 -160.33 723.45 -329.5 750.37 -517.26 777.3 -655.22 786.09 -692.16 777.38 -618.38 768.83 -461.02 744.17 -274.74 707.61 -120.96 678.54 -45.92 650.22 -69.58 636.6 -177.43 653.41 -335.58 707.18 -489.94 808.57 -594.73 944.3 -623.71 1109.4 -567.3 1274.82 -443.43 1393.17 -280.62 1438.74 -119.21 1385.42 7.17 1253.08 78.13 1079.71 83.7 939.92 32.48 913.12 -62.93 1026.45 -175.1 1252.73 -279.92 1484.08 -364.38 1610.52 -409.31 1552.58 -411.14 1348.37 -372.31 1123.89 -298.77 1043.48 -202.66 1183.69 -89.79 1464.04 24.33 1687.52 130.52 1681.38 229.14 1450.52 310.34 1188.03 373.8 1136.46 423.36 1355.58 457.85 1663.35 481.38 1678.46 500.22 1278.46 521.26 1707.84 537.86 1790.68 549.91 1542.27 568.96 1233.26 595.88Q1233.26 595.88 1233.26 595.88" opacity="0.24"></path><path d="M1194.18 714.97C1168.85 740.54 1430.54 765.81 1708.7 789.9 1730.5 812.96 1475.54 832.85 1190.61 847.45 1134.21 858.31 1347.47 860.65 1625.24 852.14 1724.52 837.4 1557.8 809.95 1268.14 769.59 1078.2 725.57 1125.77 672.93 1352.34 616.6 1586.24 569.39 1651.45 531.33 1510.62 511.45 1251.75 519.09 1035.23 556.88 972.74 628.56 1081.93 728.55 1283.49 852.66 1460.8 988.68 1532.36 1115.43 1462.01 1219.52 1290.18 1282.36 1077.05 1292.25 903.61 1245.94 813.5 1149.25 816.94 1025.95 896.47 897.76 1011.81 796.01 1138.75 751.38 1234.56 776.84 1284.72 874.31 1291.91 1023.56 1255.5 1192.58 1191.24 1338.87 1103.66 1422.35 1011.5 1420.1 925.84 1329.72 837.43 1179.63 763.67 1011.26 706.27 877.58 649.77 824.9 608.77 870.55 583.19 1003.66 557.61 1181.89 548.06 1343.74 554.75 1438.1 562.32 1438.55 586.99 1344.86 627.17 1188.11 664.58 1013.14 709.36 870.53 750.54 796.48 768.39 806.99 759.38 893.4 707.86 1026.67 613.37 1173.87 474.34 1292.38 305.4 1354.49 148.07 1348.9 27.77 1276.06 -15.09 1154.28 35.59 1004.91 170.96 858.27 347.49 737.97 482.72 657.52 517.95 626.75 412.87 641.93 202.04 697.54 -31.44 777.06 -170.83 864.32 -138.55 952.41 49.48 1023.27 281.72 1070 395.93 1093.5 305.93 1088.95 49.21 1060.61 -200.16 1011.72 -268.57 948.22 -97.39 876.97 173.52 797.19 323.59 718.24 209.87 644.07 -82.32 569.26 -307.8 502.42 -261.27 444.4 13.78 387.69 261.21 339.44 234.35 299.24 -48.86 259.63 -313.14 227.06 -287.81 201.48 131.87 166.91 -178.17 137.66 -283.28 145.71 -14.61 155.49 256.38 174.94 297.16 203.34 84.03 231.11 -186.68 264.63 -286.13 300.09 -136.02 327.02 146.12 347.3 352.05 354.2 347.91 340.55 153.7 304.33 -80.18 241.43 -201.41 155.28 -128.69 46.35 86.18 -78.32 330.42 -202.18 475.8 -316.82 470.31 -405.97 332.17 -454.69 144.85 -455.85 -2.02 -405.62 -56.34 -315.53 4.6 -197.37 148.52 -74.63 336.89 20.51 509.8 68.59 632.08 51.38 693.55 -33.52 691.08 -172.86 645.14 -338.81 565.68 -490.84 482.3 -593.91 411.64 -618.88 348.07 -559.29 309.67 -428.91 294.18 -263.82 289.96 -116.93 301.23 -30.73 321.46 -36.21 345.18 -135.6 371.2 -300.02 396.77 -478.25 422.35 -611.39 446.88 -654.49 472.99 -596.78 502.57 -458.06 540.4 -282.16 592.86 -122.19 656.59 -21.91 742.37 -7.43 852.34 -76.45 969.41 -208.3 1098.22 -360.67 1222.01 -491.18 1312.27 -569.92 1357.96 -574.55 1338.49 -507.11 1258.21 -382.56 1126.08 -229.58 977.12 -79.65 872.62 43.68 849.75 118.47 940.66 138.78 1124.14 106.15 1346.58 33.99 1518.24 -59.22 1557.25 -161.72 1443.8 -250.71 1229.77 -314.11 1045.09 -349.2 1000.85 -348.91 1148.71 -317.14 1409.23 -257.84 1628.23 -179 1655.19 -89.8 1472.06 8.52 1210.76 104.38 1079.4 192.74 1197.6 277.42 1484.97 350.3 1712.53 411.44 1686.19 466.36 1427.4 511.4 1168.6 548.78 1158.74 582.41 1415.95 611.62 1703.2 638.38 1739.51 664.1 1485.64 689.39 1194.18 714.97Q1194.18 714.97 1194.18 714.97" opacity="0.83"></path><path d="M1155.18 602.37C1239.65 635.17 1617.55 663.48 1228.65 656.43 1079.43 647.52 1189.23 629.41 1453.84 602.58 1661.84 575.89 1647.03 542.98 1427.28 506.96 1157.68 477.7 1024.74 452.7 1100.76 437.94 1324.35 440.99 1537.44 463.33 1607.92 509.72 1497.25 579.19 1269.36 672.36 1046.22 785.18 926.2 904.42 956.29 1023.95 1099.48 1129.62 1288.2 1205.24 1429.64 1242.38 1472.36 1232.32 1406.49 1177.73 1257.8 1083.7 1078.16 965.31 905.36 849.89 785.44 756.48 730.71 708.67 738.75 722.88 794.17 800.19 872.02 930.53 965.07 1086.86 1045.13 1238.36 1102.6 1349.39 1145.34 1392.23 1162.23 1355.38 1159.13 1245.59 1144.42 1094.18 1119.37 938.67 1090.68 823.7 1058.92 785.86 1029.64 836.62 1005.4 964.66 981.17 1133.32 962.57 1289.84 947.13 1389.64 928.62 1407.64 907.16 1338.49 876.17 1203.78 833.58 1038.47 771.79 886.1 685.09 782.69 583.66 749.62 460.56 790.44 325.52 889.21 205.67 1023.2 109.31 1156.09 61.48 1258.16 76.43 1311.82 157.72 1304 293.17 1239.33 435.47 1129.03 548.08 994.1 579.29 856.84 501.89 732.59 327.18 639.84 106.7 585.66 -68.23 571.52 -128.58 593.61 -37.17 642.12 157.35 712.06 358.26 787.74 443.7 858.86 347.99 924.56 111.41 972.84 -133.78 1001.6 -231.41 1014.34 -118.22 1007.98 133.61 986.25 335.6 951.81 334.63 908.13 112.96 859.71 -165.32 805.24 -286.69 751.16 -146.81 700.36 135.91 647.76 322.41 600.83 240.28 560.91 -44.79 520.73 -281.43 488.21 -248.81 463.98 154.15 432.06 -80.91 410.28 -283.88 417.38 51.25 427.08 140.94 446.97 -201.23 439.75 -227.32 419.49 -43.12 384.91 221.36 332.39 403.07 263.85 395.66 176.95 225.79 73.91 0.15 -34.55 -140.46 -146.3 -124.59 -250.91 38.05 -334.11 265.27 -389.48 456.27 -407.1 545.29 -384.7 507.91 -322.21 381.08 -226.57 214.03 -117.93 78.54 -9.97 14.6 75.1 32.7 114.55 125.67 98.9 261.87 23.65 420.89 -100.02 564.88 -252.65 676.38 -404.4 755.58 -520.95 795.23 -577.57 805.62 -558.19 791.56 -468.47 766.5 -327.68 741.52 -171.73 710.04 -46.35 688.75 15.68 681.44 -7.07 673.71 -111.63 681.54 -270.6 705.77 -439.25 730.01 -567.32 770.06 -615.66 824.99 -573.06 879.5 -453.32 947.29 -290.68 1024.48 -129.91 1095.16 -10.75 1165.1 37.68 1223.13 8.53 1256.7 -88.8 1260.09 -224.52 1222.88 -363.09 1153.38 -475.68 1050.33 -533.26 931.1 -525.86 834.69 -456.45 780.34 -339.56 799.59 -198.91 900.88 -55.28 1072.44 65.72 1274.16 148.93 1435.66 187.61 1506.31 180.71 1449.06 136.85 1289.81 62.94 1092.83 -23.3 958.8 -107.88 971.54 -186.03 1139.15 -243.13 1390.02 -275.26 1585.12 -284.3 1616 -268.02 1455.91 -231.28 1213.03 -176.73 1048.58 -110.78 1092.43 -39.53 1326.77 38.47 1593.76 114.42 1694.37 185.07 1550.31 255.87 1272.88 318.87 1091.59 373.47 1168.3 426.78 1446.66 472.17 1691.46 510.05 1684.8 547.38 1429.04 578.14 1155.18 602.37Q1155.18 602.37 1155.18 602.37" opacity="0.99"></path><path d="M1116.26 340.91C1077.14 363.8 1283.53 378.28 1559 384.83 1683.31 391.6 1557.23 390.98 1284.86 384.03 1069.66 378.58 1067.58 368.83 1265.77 357.17 1519.07 350.67 1643.36 346.72 1559.6 349.21 1322.59 362.9 1083.35 388.79 978.99 430.55 1058.02 487.6 1260.39 562.33 1462.68 653.98 1560.76 754.14 1501.39 862 1321.42 969.39 1097.22 1062.96 926.76 1137.28 865.62 1181.88 923.22 1190.46 1062.35 1160.24 1220.99 1092.32 1352.37 999.66 1408.47 891.36 1382.29 785.4 1283.53 705.49 1141.56 664.45 990.43 675.59 845.83 741.93 736.35 855.98 667.32 1000.46 634.77 1147.02 635.09 1269.39 655.08 1340.62 693.28 1344.66 733.08 1278.97 765.98 1156.42 801.54 1008.67 823.74 868.35 830.93 772.06 837.67 747.98 829.66 802.93 806.77 925.65 783.89 1084.7 746.67 1235.24 695.36 1338.78 643.58 1372.2 577.46 1326.6 498.75 1215.75 422.69 1065.71 340.48 912.25 260.76 788.77 199.25 718.7 158.29 714.15 151.18 770.31 180.55 874.52 251.35 999.82 358.38 1119.45 471.93 1214.56 577.42 1264.31 640.91 1262.5 631.82 1211.12 541.66 1119.03 377.53 1001.99 186.15 872.59 15.59 750.17 -72 647.5 -40.85 570.3 101.03 525.6 298.21 511.84 451.16 527.08 485.05 563.78 363.14 613.42 137.02 674.53 -87.52 734.83 -186.96 788.46 -103.01 838.2 117.57 874.96 337.81 898.12 404.79 912.58 265.6 914.42 -0.6 906.02 -211.71 890.98 -220.56 869.34 -14.19 843.86 249.33 815.26 368.68 785.89 239.84 757.65 -40.14 728.64 -248.85 702.29 -209.73 679.4 46.5 656.52 303.07 637.64 352.77 622.07 160.73 605.74 -112.48 591.18 -251.85 576.62 -154.52 558.94 105.37 538.19 338.21 511.71 388.06 478.6 230.58 436.12 -13.71 382 -184.64 319.19 -168.4 243.76 17.89 156.44 268.3 65.24 441.23 -31.53 457.15 -127.91 320.34 -212.83 116.09 -283.61 -48.44 -331.59 -102.05 -350.59 -19.4 -337.33 156.85 -290.13 365.36 -217.47 528.32 -123.61 603.65 -21.23 581.95 68.77 484.38 135.4 353.74 162.96 219.86 140.95 126.37 69.05 88.24 -46.46 104.75 -186.49 170.3 -330.44 265.48 -451.44 383.32 -524.4 500.18 -534.77 604.39 -477.62 702.09 -367.07 779.18 -224.55 837.62 -83.33 887.28 18.69 924.14 57.58 953.12 19.66 979.33 -88.37 1002.88 -241.21 1025.77 -400.26 1048.65 -523.02 1070.33 -575.68 1088.69 -547.1 1104.3 -446.3 1111.35 -299.25 1104.86 -142.66 1089.58 -11.27 1054.88 65.36 998.71 74.25 936.01 15.95 859.8 -91.51 781.62 -221.29 726.1 -349 699.23 -444.4 720.29 -490.34 796 -481.08 925.97 -417.87 1095.12 -314.14 1261.03 -184.35 1392.66 -50.56 1447.11 69.11 1404.52 164.06 1272.99 222.85 1094.48 244.27 948.21 229.66 894.13 186.77 974.76 125.94 1166.32 51.3 1396.05 -22.5 1556.7 -87.38 1564.61 -143.76 1413.85 -182.01 1183.85 -201.49 1017.96 -205.67 1020.38 -192.89 1208.08 -166.92 1469.15 -129.75 1641.53 -85.15 1604.6 -37.13 1384.67 16.04 1135.7 68.19 1047.21 116.79 1195.41 166.9 1475.36 211.45 1671.93 249.26 1626.75 287.28 1372.5 318.03 1116.26 340.91Q1116.26 340.91 1116.26 340.91" opacity="0.87"></path><path d="M1077.26 122.91C1032.7 144.45 1211.53 162.1 1475.86 176.49 1636.94 191.55 1579.21 204.7 1349.04 217.51 1100.85 233.07 998.09 251.01 1095.75 273.71 1325.82 302.35 1535.89 339.12 1599.87 386.27 1483.39 441.65 1254.07 508.91 1037 587.97 935.45 672.22 992.04 763.92 1161.91 858.51 1362.35 946.01 1492.32 1024.86 1500.05 1087.18 1385.29 1125.42 1196.08 1136.1 1002.99 1115.14 860.04 1066.23 809.12 990.71 848.09 896.37 958.31 800.23 1095.23 711.27 1218.25 645.04 1307.32 617.12 1337.94 633.18 1312.98 696.58 1239.87 800.15 1136.26 931.77 1021.9 1071.61 900.24 1194.33 792.43 1279.99 704.25 1310.63 628.34 1280.22 572.96 1192.54 533.46 1063.86 503.02 924.19 480.93 800.77 462.08 722.79 445.69 711.26 427.7 769.48 406.16 886.65 384.62 1036.08 360.04 1180 334.48 1285.64 311.38 1332.21 292.13 1308.62 281.94 1222.44 280.83 1092.07 296.31 945.47 333.14 811.74 382.23 713.74 451.79 668.56 536.12 679.78 613.16 743.32 680.36 842.53 718.11 956.74 707.71 1069.67 642.75 1158.44 520.48 1210.43 364.26 1221.2 195.29 1188.38 54.24 1119.17 -15.53 1021.1 5.8 908.2 120.52 793.47 285.38 683.61 447.7 591.12 537.03 520.97 503.87 473.7 349.92 451 127.05 449.19 -65.24 466.73 -142.7 496.81 -60.36 533.49 137.48 577.96 349.25 620.84 449.94 658.57 370.18 695.8 146.09 724.44 -96.13 743.9 -205.94 760.35 -113.48 767.98 126.4 767.76 348.26 765.39 399.64 756.85 234.3 743.23 -34.27 728.96 -215.29 710.86 -170.73 689.32 67.84 667.78 319.68 643.32 402.59 615.64 261.68 587.3 4.33 554.51 -186.53 516.26 -184.38 475.86 8.65 428.33 263.29 372.81 424.99 314.27 399.87 247.38 217.88 172.83 -11.16 97.77 -148.44 18.49 -122.81 -61.34 50.72 -133.39 281.54 -197.81 460.64 -248.56 517 -279.95 436.08 -289.32 269.72 -272.88 87.34 -233.55 -29.26 -170.65 -41.82 -89.02 50.31 -2.52 213.07 83.49 393.43 156.13 552.03 199.93 647.66 208.78 671.98 175.58 629.88 101.19 543.59 -8.44 441.19 -140.57 334.43 -274 251.84 -390.78 201.86 -470.11 180.41 -497.14 191.41 -466 225.49 -380.17 278.7 -258.61 340.53 -122.29 402.29 -0.22 469.52 77.65 528.78 94.93 576.7 44.12 625.17 -65.75 660.68 -211.83 682.22 -361.26 703.76 -478.46 710.82 -534.52 704.3 -518.76 698.34 -436.54 680.41 -306.79 653.8 -158.81 621.7 27.17 615.23 64.46 687.63 -78.26 774.95 -202.33 893.93 -316.39 1036.07 -400.76 1173.83 -444.96 1294.45 -440.15 1369.75 -389.81 1378.62 -301.16 1315.05 -188.22 1187.28 -66.64 1037.74 53.12 904.55 155.53 840.64 232.67 881.44 281.86 1024.93 300.76 1232.74 293.34 1424.53 261.84 1529.44 215.06 1495.5 160.75 1338.83 99.35 1128.88 41.99 974.56 -6.89 968.14 -50.58 1122.97 -81.44 1367.81 -99.5 1565.59 -109.32 1604.73 -107.84 1455.19 -97.4 1212.7 -81.02 1029.95 -59.06 1036.11 -33.99 1235.29 -6.18 1498.98 22 1644.15 48.89 1565.5 76.46 1315.84 101.37 1077.26 122.91Q1077.26 122.91 1077.26 122.91" opacity="0.51"></path><path d="M1038.26 108.71C989.21 128.9 1141.06 151.72 1388.74 177.43 1575.64 203.73 1582.26 234.01 1410.38 269.17 1163.1 306.28 986.56 349.84 974.09 400.67 1125.62 454.41 1348.21 516.04 1518.67 585.18 1552.55 655.53 1432.51 730.94 1222.06 808.57 1013.14 880.78 897.81 948.48 912.37 1006.42 1042.09 1048.49 1222.41 1072.62 1378.31 1074.39 1458.32 1054.09 1432.25 1010.09 1316.66 944.27 1144.15 866.73 968.83 780.53 832.93 695.82 757.5 627.73 753.85 582.55 807.61 570.23 904.89 596.88 1014.29 662.18 1112.57 761.9 1193.78 883.02 1239.49 1012.37 1250.43 1131.38 1231.97 1220.37 1188.52 1266.13 1130.78 1258.89 1059.24 1200.37 986.93 1098.15 920.37 969.63 851.41 841.76 793.15 736.35 747.3 675.97 701.6 675.7 668.44 736.28 648.25 847.65 628.05 987.44 621.31 1124.18 627.67 1230.32 634.2 1287.68 653.7 1284.07 684.58 1222.41 713.05 1114.79 747.96 981.81 782.86 847.43 803.96 732.06 811.54 654.59 795.02 624.03 749.08 642.64 669.24 703.28 554.88 792.62 423.44 899.04 281.86 1002.32 153.45 1087.85 68.57 1148.27 42.17 1173.44 88.7 1162.77 195.71 1118.83 343.31 1047.36 489.34 957.58 578.47 854.89 579.33 751.16 475.48 654.23 295.74 565.9 92.93 493.94 -57.8 439.68 -93.39 401.76 2.36 380.65 193.28 373.17 385.71 378.44 489.3 391.73 440.61 409.12 255.36 432.68 19.62 455.46 -143.3 474.93 -142.22 496.05 24.66 511.53 264.15 520.35 428.24 529.16 415.68 530.87 224.78 525.25 -26.89 519.5 -180.78 506.61 -131.73 486.42 89.24 466.23 333.41 439.21 443.8 405.64 354.4 371.93 127.97 331.47 -90.79 284.58 -173.02 237.68 -69.6 184.79 154.42 127.03 377.27 70.93 479.11 12.29 417.81 -46.26 231.53 -98.64 24.41 -146.06 -100.83 -184.5 -89.72 -210.18 52.09 -221.27 258.41 -214.47 451.53 -191.35 556.81 -149.45 548.59 -90.02 438.78 -21.98 278.49 54.01 127.57 130.24 26.96 193.56 10.31 239.83 73.94 259.94 201.61 246.78 357.61 199.14 507.72 117.7 634.45 11.16 714.46 -111.68 746.68 -236.11 735.14 -343.47 691.46 -420.58 631.62 -454 557.78 -438.27 489.8 -373.95 435.16 -269.99 386.24 -147.01 355.31 -23.67 340.59 76.16 332.51 130.04 336.12 127.73 347.71 66.41 361.41 -43.7 379.13 -182.47 399.32 -322.26 419.51 -433.66 441.7 -492.22 467.34 -487.98 495.07 -423.63 530.22 -312.29 576.39 -176.63 629.19 -40.31 697.52 71.56 783.08 141.49 874.35 160.14 978.21 127.54 1087.04 53.36 1181.87 -50.84 1259.67 -163.74 1304.37 -266.85 1305.3 -348.57 1257.48 -394.31 1161.88 -399.94 1042.89 -366.6 916.95 -298.93 818.17 -207 783.43 -98.45 827.81 12.94 954.89 116.95 1132.28 209.24 1317.77 280.98 1451.42 330.16 1483.49 357.29 1400.69 363.22 1228.59 352.27 1043.3 325.45 921.05 289.94 927.95 250.89 1071.21 206.41 1294.78 165.13 1495.87 129.77 1571.97 95.62 1483.28 69.85 1271.83 52.75 1059.19 38.55 965.41 32.41 1055.43 33.38 1398.18 40.53 1380.3 79.97 1038.26 108.71Q1038.26 108.71 1038.26 108.71" opacity="0.89"></path><path d="M1000.63 308.57C946.29 327.42 1070.57 352.6 1296.63 383.88 1499.05 415.29 1563.46 452.99 1460.06 496.7 1244.5 540.5 1029.99 590.02 920.45 644.38 962.65 697.54 1128.14 753.71 1331.28 810.73 1482.22 862.87 1510.75 911.82 1410.77 954.09 1222.59 985.67 1022.85 1005.39 882.44 1009.91 841.94 999.34 907.21 971.24 1043.39 925.43 1206.91 868.27 1338.61 799.19 1402.94 723.56 1388.04 652.81 1299.39 589.82 1164.49 543.25 1007.18 522.57 864.28 530.6 757.18 570.99 692.78 641.77 677.06 738.92 700.19 853.86 756.24 971.99 827.11 1081.77 898.91 1168.29 972.73 1218.67 1031.77 1225.7 1073.09 1186.25 1104.64 1107.28 1118.94 998.05 1119.7 875.33 1113.62 762.17 1099.67 675.28 1081.75 631.48 1061.92 641.1 1041.81 703.13 1022.96 808.47 1004.12 938.63 986.98 1067.66 970.1 1172.79 951.32 1238.51 929.09 1252.46 899.63 1214.27 863.33 1131.08 814.11 1017.01 748.37 890.63 672.85 768.82 580.34 669.79 473.85 605.23 369.4 581.21 266.68 598.15 179.68 649.73 125.6 729.48 111.28 822.68 146.63 916.29 224.68 1003.03 339.53 1069.45 469.88 1109.8 577.81 1123.25 640.58 1107.64 630.78 1066.8 541.75 1003.98 386.52 926.13 200.75 840.33 42.31 748.6 -43.92 659.82 -23.05 578.38 97.73 503.21 279.2 440.03 450.57 389.12 533.74 348.07 489.85 318.19 325.09 297.36 19.26 280.56 79.21 272.6 390.24 271.01 486.37 271.02 416.42 267.5 210.27 259.41 -19.51 251.67 -145.7 238.61 -91.36 219.76 113.1 200.92 346.53 176.73 476.81 147.77 435 119.16 249.75 86.5 27.13 50.95 -117.47 17.04 -107.16 -17.96 47.21 -52.12 363.35 -117.79 -52.7 -94.87 32.82 -32.18 207.83 20.2 398.9 80.92 546.59 145.69 615.32 204.52 591.38 256.5 495.49 294.63 355.41 310.78 218.19 302.88 117.71 267.18 69.16 204.58 84.2 117.19 152.09 10.83 261.78 -102.39 389.23 -213.86 514.41 -310.43 631.86 -378.83 723.65 -411.14 787.44 -400.95 827.47 -350.22 843.7 -263.47 843.91 -152.3 829.68 -36.56 810.47 68.51 792.72 144.44 770.57 175.38 755.83 155.9 751.19 86.48 745.98 -22.36 752.36 -153.29 771.2 -283.44 790.05 -388.8 820.92 -448.95 862.84 -454.87 904.19 -407.36 955.1 -314.94 1012.79 -194.51 1066.09 -64.52 1120.21 53.72 1168.63 143.33 1202.62 193.43 1219.86 198.68 1212.5 162.13 1181.36 89.43 1121.43 -4.98 1034.92 -106.3 940.69 -204.44 843.28 -283.32 762.64 -334.49 723.8 -355.26 736.81 -342.31 812.33 -299.38 939.77 -230.56 1102.87 -144.04 1267.65 -48.59 1388.25 51.73 1435.7 146.69 1389.24 230.81 1263.8 303.6 1093.71 359.75 938.33 399.37 863 423.9 900.11 434.22 1048.89 433.59 1254.75 422.25 1441.7 405.16 1528.68 385.68 1475.54 361.32 1303.09 338.62 1090.12 319.66 946.37 299.49 945.06 284.88 1096.95 276.62 1326.84 268.46 1517.63 266.93 1563.17 272.23 1436.62 277.66 1205.1 289.72 1000.63 308.57Q1000.63 308.57 1000.63 308.57" opacity="0.25"></path><path d="M960.18 575.91C905.15 593.41 1006.3 615.93 1208.12 642.97 1413.45 669.71 1520.76 700.36 1483.58 733.9 1105.45 796.8 876.62 861.34 1102.23 911.51 1433.78 935.16 1400.34 920.74 1067.78 856.38 807.48 762.79 873.72 641.08 1128.44 526.92 1333.3 474.27 1306.73 506.01 1109.47 639.87 849.04 839.48 667.09 1046.88 593.34 1174.29 607.46 1161.47 663.65 1007.31 709.12 783.29 743.67 652.66 760.45 639.29 740.11 769.66 722.61 890.19 693.71 1011.05 653.95 1113.74 614.23 1185.4 563.99 1214.19 504.77 1197.6 393.28 1046.56 273.43 816.42 198.65 621.89 211.74 539.34 336.05 590.93 542.54 729.78 685.85 901.62 662.17 1026.65 411.44 1069.61 110.84 1029.92 3.1 921.72 226.96 782.87 523.07 627.21 525.12 490.72 167.92 384.63 -83.34 296.5 125.55 235.34 490.18 191.1 520.6 171.71 408.15 153.96 199.36 136.87 -5.92 120.28 -108.84 103.4 -53.81 85.9 132.33 68.4 353.42 50.69 500.34 33.2 437.77 8.28 24.69 -36.28 505.59 -10.07 502.83 35.34 178.13 114.19 -21.19 215.9 133.51 300.81 468.46 358.78 663.54 352.61 595.5 263.8 371.92 97.29 190.82 -110.99 139.73 -286.29 240.9 -369.3 407.49 -312.43 603.7 -143.58 755.16 66.64 853.02 204.19 895.01 214.05 927.68 180.13 953.56 105.03 977.91 -1.09 998.34 -123.73 1015.84 -244.25 1040.42 -373.77 1065.9 -350.08 1057.38 -210.14 1025.53 27.39 937.73 201.49 802.19 240 696.25 138.25 652.72 -37.75 757.75 -200.92 992.8 -298.35 1266.64 -288.59 1380.55 -190.08 1231.34 -30.04 937.89 141.9 819.63 289.45 1055.4 407.76 1411.49 479.81 1439.91 516.82 994.63 526.87 1440.5 530.48 1509.11 539.29 1365.65 546.34 1146.33 558.41 960.18 575.91Q960.18 575.91 960.18 575.91" opacity="0.58"></path><path d="M921.26 713.66C945.04 745.96 1320.41 778.79 1479.63 806.88 1202.7 828.7 873.48 834.31 900.2 813.92 1220.53 776.86 1426.24 708.08 1303.3 613.37 979.58 525.63 759.71 449.64 783.68 418.11 995.92 457.62 1205.06 573.02 1284.08 751.99 1216.29 942.21 1048.75 1093.5 869.14 1143.9 695.26 1071.92 579.04 897.9 510.31 694.66 461.37 566.86 428.53 576.09 396.22 730.65 363.91 955.99 333.67 1129.79 321.67 1171.15 329.47 1068.5 386.92 870.99 504.81 667.25 628.43 527.67 742.76 497.3 760.76 564.87 631.95 702.02 376.42 846.84 121.83 953.95 55.52 1010.4 237.08 998.79 527.16 935.83 616.45 833.29 381.77 716.53 37.75 605.88 -12.63 493.52 298.18 401.33 562.65 331.17 390.95 264.29 9.04 215.18 -14.73 182.87 362.13 150.56 558.55 136.57 305.82 142.52 -21.88 151.74 38.08 185.15 387.36 241.52 534.11 327.96 100.49 408.29 462.13 292.13 688.21 142.68 717.77 -40.43 599.5 -211.23 410.43 -312.46 273.21 -311.08 225.22 -195.21 249.65 -15.16 327.41 163.96 412.68 254.17 511.63 200.37 583.11 20.06 615.41 -205.26 647.72 -359.86 639.34 -362.59 601.31 -222.35 576.97 -6.63 557.99 185.78 589.55 281.46 693.53 254.76 883.96 132.45 1122.82 -24.12 1290.89 -169.45 1307.72 -246.55 1123.98 -243.73 880.42 -169.86 767.28 -47.48 942.75 90.05 1271.89 234.55 1444.88 356.54 1249.81 449.6 924.21 525.97 882.62 579.14 1222.8 618.24 1488.01 651.09 1298.13 681.35 921.26 713.66Q921.26 713.66 921.26 713.66" opacity="0.78"></path><path d="M882.26 620.7C883.91 650.32 1216.63 663.4 1442.67 658.62 1292.54 650.93 948.81 621.33 791.89 570.17 961.46 518.82 1253.94 455.51 1381.44 395.31 1245.15 364.83 964.11 369.65 744.03 428.2 691.3 539.43 803.75 696.98 973.72 872.78 1134.57 1017.78 1204.35 1097.26 1189.45 1076.67 1111.92 963.04 1007.77 785.99 914.12 611.26 813.89 517.94 745.74 544.88 716.12 691.65 686.5 898.34 696.83 1068.6 741.2 1134.76 778.99 1078.42 829.27 923.18 855.47 731.92 819.05 561.6 700.5 464.49 494 453.69 278.39 522.34 123.42 635.38 137.33 753.54 318.59 862.09 564.52 927.76 669.97 947.24 511.63 929.36 192.59 878.69 1.32 812.16 136.53 730.79 463.4 652.48 602.1 586.72 364.64 519.28 25.91 469.16 24.26 439.54 367.75 409.92 598.71 402.2 441.02 413.79 49.53 435.9 597.9 494.33 474.76 467.53 202.86 402.42 75.62 294.24 163.79 146.88 402.92 -10.09 640.15 -158.25 774.42 -257.76 787.76 -277.81 708.61 -207.28 605.44 -58.68 489.92 110.87 416.9 249.26 388.88 294.2 374.15 216.65 386.84 40.41 416.45 -166.26 446.07 -313.08 491.21 -334.05 561.8 -229.32 645.67 -43.17 772.57 150.73 939.42 286.09 1093.91 328.41 1221.83 275.49 1254.14 161.33 1165.52 16.37 970.8 -106.06 770.49 -178.48 721.14 -198.22 883.5 -160.53 1186.23 -84.4 1388.8 21.44 1318.18 133.52 1018.09 236.2 809.58 338.68 930.91 422.16 1281.6 485.7 1450.71 546.34 1225.75 591.08 882.26 620.7Q882.26 620.7 882.26 620.7" opacity="0.88"></path><path d="M843.26 365.4C967.46 395.8 1211.42 367.09 805.2 324.39 770.56 304.94 971.91 293.34 1217.21 303.48 1334.18 345.29 1241.61 424.3 1023.68 542.88 786.69 682.55 647.77 833.42 627.74 965.42 707.6 1044.6 827.33 1052.12 932.58 976.27 1026.2 840.85 1071.89 675.65 1079.65 534.51 1073.88 473.52 1052.14 514.73 1025.21 652.65 998.29 840.42 967.46 1003.87 922.45 1088.36 863.91 1073.68 769.24 965.49 628.96 804.08 477.06 630.38 312.99 492.31 191.63 415.15 170.17 405.27 270.43 453.11 472.13 534.03 654.77 637.43 715.42 730.99 570.42 799.94 184.34 860.13 465.31 825.32 608.46 771.3 334.39 730.16 45.98 694.04 63.26 667.12 372.28 640.19 623.52 623.74 560.29 614.1 261.42 600.38 42.52 585.34 101.74 560.19 379.08 519.41 635.11 455.98 690.91 363.83 533.8 253.39 303.01 121.18 153.44 -17.5 149.42 -133.71 285.6 -213.48 477.22 -231.63 674.05 -182.52 807.06 -68.61 871.82 85.34 884.48 227.02 865.56 319.9 846.27 324.22 817 229.36 811.43 60.48 838.35 -127.27 865.28 -265.23 923.42 -301.02 1003.47 -229.67 1073.54 -78.15 1141.43 102.37 1175.44 257.54 1157.33 353.15 1068.66 369.78 913.33 318.65 763.21 214.67 665.68 95.73 704.98 -8.65 889.84 -91.95 1152.56 -132.31 1337.7 -132.61 1309.93 -101.27 1078.05 -45.32 820.45 20.78 780.96 98.28 1015.18 170.97 1324.44 231.28 1398.06 292.86 1152.28 338.48 843.26 365.4Q843.26 365.4 843.26 365.4" opacity="0.69"></path><path d="M804.26 135.54C771.52 159.77 1000.72 174.3 1272.84 182.13 1361.86 193.22 1196.22 204.12 921.1 222.05 727.32 252.74 738.74 301.32 912.17 374.07 1137.32 464.97 1270.17 579.13 1259.72 708.07 1122.44 829.3 927.91 934.2 750.92 999.83 616.13 1010.68 554.46 959.66 546.4 850.3 579.11 712.59 622.43 570.93 652.77 465.63 688 433.68 696.05 485.61 671.82 613.65 647.59 782.31 592.22 935.97 511.29 1032.22 435.25 1052.44 347.85 991.18 273.14 870.96 239.21 717.78 260.98 568.59 358.42 450.78 498.07 375.6 657.81 351.19 763.33 368.39 742.02 421.64 580.43 490.48 330.05 558.72 131.4 630.02 98.25 684.4 274.27 718.64 531.62 745.48 683.47 754.24 585.1 748.68 303.63 739.98 69.52 722.44 102.26 698.21 376.16 673.98 633.64 644.2 654.96 607.2 434.51 567.06 171.48 514.22 72.65 445.38 199.87 369.16 456.7 274.88 673.47 166.23 744.35 60.64 650.64 -42.98 475.91 -127.98 295.65 -176.94 200.41 -181.28 204.47 -131.33 292.3 -38.76 425.21 88.68 558.94 224.1 694.76 326.56 797.44 374.05 866.92 344.5 927.82 238.92 967.53 80.37 991.76 -88.27 1016 -216.35 1023.6 -263.39 1008.4 -222.12 984.61 -107.48 926.02 47.96 832.19 203.44 740.45 330.57 647.45 403.34 596.96 417.72 630.25 377.32 760.28 301.16 972.31 211.69 1178.79 114.51 1301.23 35.13 1255.59 -18.41 1064.04 -53.82 828.95 -62.49 719.49 -51.2 836.07 -27.13 1112.9 6.04 1342.7 40.65 1330.73 78.52 1078.16 111.31 804.26 135.54Q804.26 135.54 804.26 135.54" opacity="0.65"></path><path d="M765.18 100.2C720.73 121.74 895.47 147.93 1149.98 180.06 1314.57 214.72 1278.34 259.79 1080.78 318.12 835.9 382.99 681.77 463.94 676.38 559.38 805.79 655.79 989.1 756.75 1140.8 850.5 1222.2 920.8 1205.14 961.47 1117.44 959.95 980 916.06 837.94 828.88 718.32 709.39 610.93 586.01 537.04 475.57 489.22 405.61 449.93 398.45 422.54 457.49 401 574.66 379.46 724.09 364.79 865.34 363.46 966.91 370.66 1013.79 405.37 994.96 475.43 920.47 557.72 804.67 664.31 671.59 768.55 544.23 823.06 432.97 809.19 353.91 699.56 309.12 519.63 296.11 310.79 309 158.95 336.87 141.91 380.1 276.72 423.26 505.81 458.67 687.59 496.09 711.56 520.29 538.66 529.32 275.84 537.75 96.73 531.5 141.18 509.96 379.73 488.42 630.42 452.62 719.04 403.56 596.08 353.91 358.49 290.53 165.46 215.78 120.78 143.04 246.71 64.41 460.68 -12 727.62 -94.98 612.67 -88.79 414.93 26.78 313.68 131.71 270.39 245.48 274.64 345.48 312.64 404.2 369.33 410.79 424.53 355.61 486.42 245.75 531.54 100.16 553.08 -49.26 574.64 -166.46 571.58 -221.16 550.31 -205.72 535.74 -127.46 518.22 -4.77 517.53 134.39 550.59 269.68 629.33 376.18 763.75 442.5 924.26 466.47 1096.04 451.33 1224.14 409.27 1253.93 343.75 1165.84 273.7 978.17 210.49 786.62 148.25 679.97 102.76 740.39 75.23 1074.09 51.27 1126.98 70.72 765.26 100.19Q765.18 100.2 765.18 100.2" opacity="0.67"></path><path d="M726.25 285.41C673.68 304.26 796.17 335.5 1012.78 378.23 1211.4 421.48 1284.43 476.8 1208.72 542.49 1023.35 607.3 815.88 679.17 666.49 752.49 613.31 815.91 662.43 870 774.71 905.54 920.48 916.61 1044.69 898.48 1122.73 847.53 1158.07 772.71 1144.75 674.7 1101.73 565.83 1035.31 468.63 965.7 392.74 907.03 355.12 845.12 367.77 802.59 430.35 783.74 535.72 764.9 665.87 770.63 792.47 796.99 893.3 820.12 957.78 855.44 973.36 889.2 942.47 899.56 871.97 881.84 774.21 817.46 665.17 710.37 551.94 559.1 450.49 388.62 368.22 251.65 303.54 180.18 261.28 213.74 237.68 343.5 229.67 534.07 232.04 705.62 238.31 767.52 251.17 683.77 260.78 477.87 262.97 253.99 266.47 127.68 259.71 180.25 240.87 383.75 222.02 616.1 191.97 749.75 152.93 723.03 115.2 561.35 71.3 358.05 25.78 199.9 -13.14 160.91 -46.55 241.49 -67.59 408.43 -73.03 594.82 -57.83 744.31 -17.86 835.16 39.71 851.83 118.81 814.72 212.42 735.35 301.83 647.82 382.69 573.9 439.38 502.51 456.45 457.92 430.15 438.77 358.39 424.59 250.29 428.46 119.87 447.3 -10.27 466.15 -115.64 499.08 -174.4 548.81 -179.78 603.51 -134.89 682.38 -48.26 786.43 62.74 893.01 185.42 1011.58 300.33 1119.99 394.78 1186.15 465.35 1196.54 505.83 1130.39 519.46 1005.6 508.62 841.55 481.58 694.24 447.21 633.28 402.94 689.18 362.1 861.14 329.96 1078.26 296.93 1250.66 275.9 1284.66 268.19 1158.28 261.01 929.75 266.57 726.25 285.41Q726.25 285.41 726.25 285.41" opacity="0.77"></path><path d="M687.17 554.9C711.11 587.21 1074.23 656.94 1241.33 743.97 1026.59 812.79 697.72 859.22 561.45 841.76 654.86 761.54 837.72 608.71 957.96 432.43 1041.01 327.85 1045.42 342.12 1013.11 496.73 980.8 722.06 914.83 889.56 775.79 930.24 599.56 847.79 366.27 683.69 230.52 512.79 324.44 353.85 619.05 247.63 810.1 186.91 619.33 148.09 243.11 121.07 219.17 88.77 596.03 56.46 796.98 21.91 589.99 4.75 268.2 9.48 227.5 65.27 438.25 181.86 727.21 310.42 890.7 440.25 930.3 499.02 895.87 434.65 865.14 254.06 897.45 28.73 929.73 -125.87 1022.02 -127.05 1112.46 1.21 1128.88 201.16 1015.85 388.26 769.23 510.82 638.25 572.63 1158 526.67 687.25 554.89Q687.17 554.9 687.17 554.9" opacity="0.50"></path><path d="M648.26 710.41C766.91 752.28 1068.65 772.4 720.32 672.97 543 568.82 500.3 436.98 525.29 320.63 593.89 275.42 632.43 319.73 605.5 457.65 578.58 645.42 488.74 802.8 373.49 880.89 301.83 876.25 302.52 794.22 444.54 677.41 652.98 538.46 833.64 416.24 792.82 327.41 523.76 246.02 240.98 192.54 258.26 165.61 567.26 138.69 818.56 140.87 785.21 175.6 530.26 217.77 306.75 297.98 258.98 401.64 373.48 483.16 559.66 536.64 711.49 521.54 850.59 423.72 927.56 255.42 954.48 67.65 981.41 -70.26 955.74 -103.66 863.3 -38.71 758.12 97.36 613.97 257.76 534.75 397.2 617.81 515.2 869.88 590.64 1144.56 634.12 1197.65 662.07 957.26 683.49 648.26 710.41Q648.26 710.41 648.26 710.41" opacity="0.87"></path><path d="M609.18 637.68C564.73 659.22 731.16 658.09 961.89 632.38 1131.02 601.15 1140.29 539.3 1030.99 452.82 851.22 372.21 686.6 291.8 577.42 239.35 489.08 240.85 441.82 301.5 420.28 418.66 398.74 568.09 404.96 703.97 455.98 796.05 527.83 843.41 658.83 835.17 810.37 788.96 891.44 714.31 859.32 631.85 674.41 561.56 427.89 488.02 252.73 436.42 297.18 414.88 535.73 393.34 783.96 403.91 882.25 440.11 799.46 473.08 615.56 521.92 450.79 568.34 336.38 586.33 316.63 571.72 351.08 508.57 417.6 400.7 476.62 256.09 498.16 106.66 519.72 -10.49 501.75 -62.42 472.54 -48.13 475.4 20.1 528.73 123.35 671.34 232.2 864.34 346.91 1071.11 442.38 1169.73 510.93 1087.29 573.97 847.83 616.14 609.26 637.67Q609.18 637.68 609.18 637.68" opacity="0.71"></path><path d="M570.18 390.11C594.1 422.42 932.29 359.76 1094.03 254.52 1036.8 201.1 880.17 225.11 847.86 379.66 815.55 605.01 913.68 759.75 928.57 794.57 724.49 758.56 360.1 685.49 336.18 653.19 713.04 620.88 921.89 635.45 819.67 629.11 577.9 551.94 458.34 371.01 490.65 145.66 522.96 -8.88 701.02 -6.69 985.12 89.05 1129.7 236.64 947.1 357.8 570.26 390.1Q570.18 390.11 570.18 390.11" opacity="0.33"></path><path d="M531.18 149.81C486.72 171.35 636.73 158.02 802.32 142.96 955.74 159.76 1008.41 223.51 986.88 340.66 965.34 490.09 873.67 615.17 692.01 681.64 498.2 725 330.72 726.8 375.18 705.26 613.73 683.72 856.74 642.92 962.45 571.33 965.12 476.63 926.17 334.09 947.71 184.66 969.24 67.51 1047.2 21.22 1072.75 32.65 995.28 75.95 769.73 128.27 531.18 149.81Q531.18 149.81 531.18 149.81" opacity="0.66"></path></g></svg>